<svg width="2339" height="675" viewBox="0 0 2339 675" fill="none" xmlns="http://www.w3.org/2000/svg">
<path d="M499 279.5C499 417.295 387.295 529 249.5 529C111.705 529 0 417.295 0 279.5C0 141.705 111.705 30 249.5 30C387.295 30 499 141.705 499 279.5Z" fill="#0F9D58"/>
<path d="M275.096 419.255C234.243 419.255 203.06 407.893 181.546 385.171C160.274 362.448 149.638 330.177 149.638 288.358C149.638 267.569 152.901 249.077 159.428 232.881C165.955 216.443 174.899 202.664 186.26 191.545C197.621 180.183 211.158 171.602 226.871 165.8C242.583 159.999 259.625 157.098 277.997 157.098C288.633 157.098 298.302 157.944 307.004 159.636C315.707 161.087 323.321 162.9 329.848 165.075C336.374 167.009 341.813 169.064 346.165 171.239C350.516 173.415 353.658 175.107 355.592 176.316L339.275 222.003C331.54 217.893 322.475 214.388 312.081 211.488C301.928 208.587 290.325 207.136 277.271 207.136C268.569 207.136 259.988 208.587 251.527 211.488C243.308 214.388 235.936 219.102 229.409 225.629C223.124 231.914 218.048 240.133 214.18 250.285C210.312 260.438 208.378 272.766 208.378 287.27C208.378 298.873 209.587 309.751 212.004 319.903C214.663 329.814 218.773 338.396 224.333 345.648C230.134 352.9 237.628 358.701 246.813 363.052C255.999 367.162 267.119 369.216 280.172 369.216C288.391 369.216 295.764 368.733 302.291 367.766C308.817 366.799 314.619 365.711 319.695 364.503C324.771 363.052 329.243 361.481 333.111 359.789C336.979 358.097 340.484 356.526 343.626 355.075L359.218 400.4C351.241 405.234 340 409.585 325.497 413.453C310.993 417.321 294.193 419.255 275.096 419.255Z" fill="white"/>
<path d="M754.103 398.44C743.463 401.52 729.743 404.32 712.943 406.84C696.143 409.64 678.503 411.04 660.023 411.04C641.263 411.04 625.583 408.52 612.983 403.48C600.663 398.44 590.863 391.44 583.583 382.48C576.303 373.24 571.123 362.32 568.043 349.72C564.963 337.12 563.423 323.26 563.423 308.14V185.08H626.003V300.58C626.003 320.74 628.663 335.3 633.983 344.26C639.303 353.22 649.243 357.7 663.803 357.7C668.283 357.7 673.043 357.56 678.083 357.28C683.123 356.72 687.603 356.16 691.523 355.6V185.08H754.103V398.44ZM802.347 295.54C802.347 279.58 804.867 264.6 809.907 250.6C815.227 236.32 822.787 224 832.587 213.64C842.387 203 854.287 194.6 868.287 188.44C882.287 182.28 898.247 179.2 916.167 179.2C927.927 179.2 938.707 180.32 948.507 182.56C958.307 184.52 967.827 187.46 977.067 191.38L964.047 241.36C958.167 239.12 951.727 237.16 944.727 235.48C937.727 233.8 929.887 232.96 921.207 232.96C902.727 232.96 888.867 238.7 879.627 250.18C870.667 261.66 866.187 276.78 866.187 295.54C866.187 315.42 870.387 330.82 878.787 341.74C887.467 352.66 902.447 358.12 923.727 358.12C931.287 358.12 939.407 357.42 948.087 356.02C956.767 354.62 964.747 352.38 972.027 349.3L980.847 400.54C973.567 403.62 964.467 406.28 953.547 408.52C942.627 410.76 930.587 411.88 917.427 411.88C897.267 411.88 879.907 408.94 865.347 403.06C850.787 396.9 838.747 388.64 829.227 378.28C819.987 367.92 813.127 355.74 808.647 341.74C804.447 327.46 802.347 312.06 802.347 295.54ZM1211.43 398.44C1200.79 401.52 1187.07 404.32 1170.27 406.84C1153.47 409.64 1135.83 411.04 1117.35 411.04C1098.59 411.04 1082.91 408.52 1070.31 403.48C1057.99 398.44 1048.19 391.44 1040.91 382.48C1033.63 373.24 1028.45 362.32 1025.37 349.72C1022.29 337.12 1020.75 323.26 1020.75 308.14V185.08H1083.33V300.58C1083.33 320.74 1085.99 335.3 1091.31 344.26C1096.63 353.22 1106.57 357.7 1121.13 357.7C1125.61 357.7 1130.37 357.56 1135.41 357.28C1140.45 356.72 1144.93 356.16 1148.85 355.6V185.08H1211.43V398.44ZM1391.55 288.82C1391.55 268.66 1388.89 254.38 1383.57 245.98C1378.53 237.58 1369.71 233.38 1357.11 233.38C1353.19 233.38 1349.13 233.66 1344.93 234.22C1340.73 234.5 1336.67 234.92 1332.75 235.48V406H1270.17V192.64C1275.49 191.24 1281.65 189.84 1288.65 188.44C1295.93 186.76 1303.49 185.36 1311.33 184.24C1319.45 182.84 1327.71 181.86 1336.11 181.3C1344.51 180.46 1352.77 180.04 1360.89 180.04C1376.85 180.04 1389.73 182.14 1399.53 186.34C1409.61 190.26 1417.87 195.02 1424.31 200.62C1433.27 194.18 1443.49 189.14 1454.97 185.5C1466.73 181.86 1477.51 180.04 1487.31 180.04C1504.95 180.04 1519.37 182.56 1530.57 187.6C1542.05 192.36 1551.15 199.22 1557.87 208.18C1564.59 217.14 1569.21 227.78 1571.73 240.1C1574.25 252.42 1575.51 266.14 1575.51 281.26V406H1512.93V288.82C1512.93 268.66 1510.27 254.38 1504.95 245.98C1499.91 237.58 1491.09 233.38 1478.49 233.38C1475.13 233.38 1470.37 234.22 1464.21 235.9C1458.33 237.58 1453.43 239.68 1449.51 242.2C1451.47 248.64 1452.73 255.5 1453.29 262.78C1453.85 269.78 1454.13 277.34 1454.13 285.46V406H1391.55V288.82ZM1773.88 293.86C1773.88 253.54 1759.04 233.38 1729.36 233.38C1722.92 233.38 1716.48 234.22 1710.04 235.9C1703.88 237.58 1698.84 239.68 1694.92 242.2V356.02C1698 356.58 1701.92 357.14 1706.68 357.7C1711.44 357.98 1716.62 358.12 1722.22 358.12C1739.3 358.12 1752.18 352.24 1760.86 340.48C1769.54 328.72 1773.88 313.18 1773.88 293.86ZM1837.72 295.54C1837.72 313.18 1835.06 329.14 1829.74 343.42C1824.7 357.7 1817.28 369.88 1807.48 379.96C1797.68 390.04 1785.64 397.88 1771.36 403.48C1757.08 408.8 1740.84 411.46 1722.64 411.46C1715.08 411.46 1707.1 411.04 1698.7 410.2C1690.58 409.64 1682.46 408.8 1674.34 407.68C1666.5 406.56 1658.94 405.3 1651.66 403.9C1644.38 402.22 1637.94 400.54 1632.34 398.86V90.16L1694.92 80.08V190.12C1701.92 187.04 1709.2 184.66 1716.76 182.98C1724.32 181.3 1732.44 180.46 1741.12 180.46C1756.8 180.46 1770.66 183.26 1782.7 188.86C1794.74 194.18 1804.82 201.88 1812.94 211.96C1821.06 222.04 1827.22 234.22 1831.42 248.5C1835.62 262.5 1837.72 278.18 1837.72 295.54ZM1875.32 297.22C1875.32 277.62 1878.26 260.54 1884.14 245.98C1890.3 231.14 1898.28 218.82 1908.08 209.02C1917.88 199.22 1929.08 191.8 1941.68 186.76C1954.56 181.72 1967.72 179.2 1981.16 179.2C2012.52 179.2 2037.3 188.86 2055.5 208.18C2073.7 227.22 2082.8 255.36 2082.8 292.6C2082.8 296.24 2082.66 300.3 2082.38 304.78C2082.1 308.98 2081.82 312.76 2081.54 316.12H1939.58C1940.98 329 1947 339.22 1957.64 346.78C1968.28 354.34 1982.56 358.12 2000.48 358.12C2011.96 358.12 2023.16 357.14 2034.08 355.18C2045.28 352.94 2054.38 350.28 2061.38 347.2L2069.78 398.02C2066.42 399.7 2061.94 401.38 2056.34 403.06C2050.74 404.74 2044.44 406.14 2037.44 407.26C2030.72 408.66 2023.44 409.78 2015.6 410.62C2007.76 411.46 1999.92 411.88 1992.08 411.88C1972.2 411.88 1954.84 408.94 1940 403.06C1925.44 397.18 1913.26 389.2 1903.46 379.12C1893.94 368.76 1886.8 356.58 1882.04 342.58C1877.56 328.58 1875.32 313.46 1875.32 297.22ZM2022.32 273.28C2022.04 267.96 2021.06 262.78 2019.38 257.74C2017.98 252.7 2015.6 248.22 2012.24 244.3C2009.16 240.38 2005.1 237.16 2000.06 234.64C1995.3 232.12 1989.28 230.86 1982 230.86C1975 230.86 1968.98 232.12 1963.94 234.64C1958.9 236.88 1954.7 239.96 1951.34 243.88C1947.98 247.8 1945.32 252.42 1943.36 257.74C1941.68 262.78 1940.42 267.96 1939.58 273.28H2022.32ZM2264.23 240.52C2258.63 239.12 2252.05 237.72 2244.49 236.32C2236.93 234.64 2228.81 233.8 2220.13 233.8C2216.21 233.8 2211.45 234.22 2205.85 235.06C2200.53 235.62 2196.47 236.32 2193.67 237.16V406H2131.09V196.84C2142.29 192.92 2155.45 189.28 2170.57 185.92C2185.97 182.28 2203.05 180.46 2221.81 180.46C2225.17 180.46 2229.23 180.74 2233.99 181.3C2238.75 181.58 2243.51 182.14 2248.27 182.98C2253.03 183.54 2257.79 184.38 2262.55 185.5C2267.31 186.34 2271.37 187.46 2274.73 188.86L2264.23 240.52Z" fill="#0F9D58"/>
<path d="M637.54 575.26C637.54 554.14 629.767 543.58 614.22 543.58C610.847 543.58 607.473 544.02 604.1 544.9C600.873 545.78 598.233 546.88 596.18 548.2V607.82C597.793 608.113 599.847 608.407 602.34 608.7C604.833 608.847 607.547 608.92 610.48 608.92C619.427 608.92 626.173 605.84 630.72 599.68C635.267 593.52 637.54 585.38 637.54 575.26ZM670.98 576.14C670.98 585.38 669.587 593.74 666.8 601.22C664.16 608.7 660.273 615.08 655.14 620.36C650.007 625.64 643.7 629.747 636.22 632.68C628.74 635.467 620.233 636.86 610.7 636.86C606.74 636.86 602.56 636.64 598.16 636.2C593.907 635.907 589.653 635.467 585.4 634.88C581.293 634.293 577.333 633.633 573.52 632.9C569.707 632.02 566.333 631.14 563.4 630.26V468.56L596.18 463.28V520.92C599.847 519.307 603.66 518.06 607.62 517.18C611.58 516.3 615.833 515.86 620.38 515.86C628.593 515.86 635.853 517.327 642.16 520.26C648.467 523.047 653.747 527.08 658 532.36C662.253 537.64 665.48 544.02 667.68 551.5C669.88 558.833 670.98 567.047 670.98 576.14ZM795.906 518.28C789.306 540.573 782.412 561.473 775.226 580.98C768.039 600.487 760.192 619.407 751.686 637.74C748.606 644.34 745.526 649.913 742.446 654.46C739.366 659.153 735.992 662.967 732.326 665.9C728.659 668.98 724.479 671.18 719.786 672.5C715.239 673.967 709.886 674.7 703.726 674.7C698.592 674.7 693.826 674.187 689.426 673.16C685.172 672.28 681.652 671.253 678.866 670.08L684.586 643.9C687.959 645.073 690.966 645.88 693.606 646.32C696.246 646.76 699.032 646.98 701.966 646.98C707.832 646.98 712.306 645.367 715.386 642.14C718.612 639.06 721.326 634.733 723.526 629.16C716.046 614.493 708.566 598.067 701.086 579.88C693.606 561.547 686.566 541.013 679.966 518.28H714.726C716.192 524 717.879 530.233 719.786 536.98C721.839 543.58 723.966 550.327 726.166 557.22C728.366 563.967 730.566 570.567 732.766 577.02C735.112 583.473 737.312 589.34 739.366 594.62C741.272 589.34 743.252 583.473 745.306 577.02C747.359 570.567 749.339 563.967 751.246 557.22C753.299 550.327 755.206 543.58 756.966 536.98C758.872 530.233 760.559 524 762.026 518.28H795.906Z" fill="#737373"/>
<path d="M891.694 601.473C893.168 601.607 894.843 601.741 896.719 601.875C898.729 601.875 901.074 601.875 903.754 601.875C919.432 601.875 931.023 597.922 938.527 590.016C946.165 582.11 949.984 571.189 949.984 557.253C949.984 542.647 946.366 531.592 939.13 524.088C931.894 516.584 920.437 512.832 904.759 512.832C902.615 512.832 900.404 512.899 898.126 513.033C895.848 513.033 893.704 513.167 891.694 513.435V601.473ZM982.345 557.253C982.345 569.313 980.469 579.832 976.717 588.81C972.965 597.788 967.605 605.225 960.637 611.121C953.803 617.017 945.428 621.439 935.512 624.387C925.596 627.335 914.474 628.809 902.146 628.809C896.518 628.809 889.952 628.541 882.448 628.005C874.944 627.603 867.574 626.665 860.338 625.191V489.516C867.574 488.176 875.078 487.305 882.85 486.903C890.756 486.367 897.523 486.099 903.151 486.099C915.077 486.099 925.864 487.439 935.512 490.119C945.294 492.799 953.669 497.02 960.637 502.782C967.605 508.544 972.965 515.914 976.717 524.892C980.469 533.87 982.345 544.657 982.345 557.253ZM1001.5 574.941C1001.5 565.561 1002.91 557.387 1005.72 550.419C1008.67 543.317 1012.49 537.421 1017.18 532.731C1021.87 528.041 1027.23 524.49 1033.26 522.078C1039.42 519.666 1045.72 518.46 1052.15 518.46C1067.16 518.46 1079.02 523.083 1087.73 532.329C1096.44 541.441 1100.8 554.908 1100.8 572.73C1100.8 574.472 1100.73 576.415 1100.59 578.559C1100.46 580.569 1100.33 582.378 1100.19 583.986H1032.25C1032.92 590.15 1035.81 595.041 1040.9 598.659C1045.99 602.277 1052.82 604.086 1061.4 604.086C1066.89 604.086 1072.25 603.617 1077.48 602.679C1082.84 601.607 1087.19 600.334 1090.54 598.86L1094.56 623.181C1092.96 623.985 1090.81 624.789 1088.13 625.593C1085.45 626.397 1082.44 627.067 1079.09 627.603C1075.87 628.273 1072.39 628.809 1068.64 629.211C1064.88 629.613 1061.13 629.814 1057.38 629.814C1047.87 629.814 1039.56 628.407 1032.46 625.593C1025.49 622.779 1019.66 618.96 1014.97 614.136C1010.41 609.178 1007 603.349 1004.72 596.649C1002.57 589.949 1001.5 582.713 1001.5 574.941ZM1071.85 563.484C1071.72 560.938 1071.25 558.459 1070.44 556.047C1069.77 553.635 1068.64 551.491 1067.03 549.615C1065.55 547.739 1063.61 546.198 1061.2 544.992C1058.92 543.786 1056.04 543.183 1052.56 543.183C1049.21 543.183 1046.32 543.786 1043.91 544.992C1041.5 546.064 1039.49 547.538 1037.88 549.414C1036.27 551.29 1035 553.501 1034.06 556.047C1033.26 558.459 1032.66 560.938 1032.25 563.484H1071.85ZM1166.12 629.01C1157.41 628.876 1150.3 627.938 1144.81 626.196C1139.45 624.454 1135.16 622.042 1131.95 618.96C1128.86 615.744 1126.72 611.925 1125.51 607.503C1124.44 602.947 1123.91 597.855 1123.91 592.227V475.848L1153.86 471.024V586.197C1153.86 588.877 1154.06 591.289 1154.46 593.433C1154.86 595.577 1155.6 597.386 1156.67 598.86C1157.88 600.334 1159.55 601.54 1161.69 602.478C1163.84 603.416 1166.72 604.019 1170.34 604.287L1166.12 629.01ZM1217.45 627H1187.5V521.274H1217.45V627ZM1220.27 490.722C1220.27 496.216 1218.46 500.571 1214.84 503.787C1211.36 506.869 1207.2 508.41 1202.38 508.41C1197.55 508.41 1193.33 506.869 1189.72 503.787C1186.23 500.571 1184.49 496.216 1184.49 490.722C1184.49 485.228 1186.23 480.94 1189.72 477.858C1193.33 474.642 1197.55 473.034 1202.38 473.034C1207.2 473.034 1211.36 474.642 1214.84 477.858C1218.46 480.94 1220.27 485.228 1220.27 490.722ZM1275.96 605.493C1281.45 605.493 1285.34 604.957 1287.62 603.885C1289.89 602.813 1291.03 600.736 1291.03 597.654C1291.03 595.242 1289.56 593.165 1286.61 591.423C1283.66 589.547 1279.17 587.47 1273.14 585.192C1268.45 583.45 1264.17 581.641 1260.28 579.765C1256.53 577.889 1253.31 575.678 1250.63 573.132C1247.95 570.452 1245.87 567.303 1244.4 563.685C1242.93 560.067 1242.19 555.712 1242.19 550.62C1242.19 540.704 1245.87 532.865 1253.24 527.103C1260.61 521.341 1270.73 518.46 1283.6 518.46C1290.03 518.46 1296.19 519.063 1302.09 520.269C1307.98 521.341 1312.67 522.547 1316.16 523.887L1310.93 547.203C1307.45 545.997 1303.63 544.925 1299.47 543.987C1295.45 543.049 1290.9 542.58 1285.81 542.58C1276.43 542.58 1271.74 545.193 1271.74 550.419C1271.74 551.625 1271.94 552.697 1272.34 553.635C1272.74 554.573 1273.55 555.511 1274.75 556.449C1275.96 557.253 1277.57 558.191 1279.58 559.263C1281.72 560.201 1284.4 561.273 1287.62 562.479C1294.18 564.891 1299.61 567.303 1303.9 569.715C1308.18 571.993 1311.53 574.539 1313.95 577.353C1316.49 580.033 1318.23 583.048 1319.17 586.398C1320.24 589.748 1320.78 593.634 1320.78 598.056C1320.78 608.508 1316.83 616.414 1308.92 621.774C1301.15 627.134 1290.09 629.814 1275.76 629.814C1266.38 629.814 1258.54 629.01 1252.24 627.402C1246.08 625.794 1241.79 624.454 1239.38 623.382L1244.4 599.061C1249.49 601.071 1254.72 602.679 1260.08 603.885C1265.44 604.957 1270.73 605.493 1275.96 605.493ZM1343.16 627V475.848L1373.11 471.024V521.676C1375.12 521.006 1377.67 520.403 1380.75 519.867C1383.96 519.197 1387.05 518.862 1389.99 518.862C1398.57 518.862 1405.67 520.068 1411.3 522.48C1417.06 524.758 1421.62 528.041 1424.97 532.329C1428.45 536.617 1430.86 541.709 1432.2 547.605C1433.68 553.501 1434.42 560.067 1434.42 567.303V627H1404.47V570.921C1404.47 561.273 1403.19 554.439 1400.65 550.419C1398.24 546.399 1393.68 544.389 1386.98 544.389C1384.3 544.389 1381.75 544.657 1379.34 545.193C1377.06 545.595 1374.99 546.064 1373.11 546.6V627H1343.16ZM1558.25 628.809C1550.61 628.809 1542.98 628.541 1535.34 628.005C1527.83 627.603 1520 626.531 1511.82 624.789V489.717C1518.25 488.511 1525.29 487.64 1532.93 487.104C1540.56 486.434 1547.67 486.099 1554.23 486.099C1563.08 486.099 1571.18 486.769 1578.55 488.109C1586.06 489.315 1592.49 491.459 1597.85 494.541C1603.21 497.623 1607.36 501.71 1610.31 506.802C1613.39 511.76 1614.93 517.924 1614.93 525.294C1614.93 536.416 1609.57 545.193 1598.85 551.625C1607.7 554.975 1613.73 559.531 1616.94 565.293C1620.16 571.055 1621.77 577.554 1621.77 584.79C1621.77 599.396 1616.41 610.384 1605.69 617.754C1595.1 625.124 1579.29 628.809 1558.25 628.809ZM1542.37 566.298V602.277C1544.65 602.545 1547.13 602.746 1549.81 602.88C1552.49 603.014 1555.44 603.081 1558.65 603.081C1568.03 603.081 1575.61 601.741 1581.37 599.061C1587.13 596.381 1590.01 591.423 1590.01 584.187C1590.01 577.755 1587.6 573.199 1582.77 570.519C1577.95 567.705 1571.05 566.298 1562.07 566.298H1542.37ZM1542.37 542.379H1557.65C1567.3 542.379 1574.2 541.173 1578.35 538.761C1582.51 536.215 1584.58 532.195 1584.58 526.701C1584.58 521.073 1582.44 517.12 1578.15 514.842C1573.86 512.564 1567.57 511.425 1559.26 511.425C1556.58 511.425 1553.7 511.492 1550.61 511.626C1547.53 511.626 1544.79 511.76 1542.37 512.028V542.379ZM1743.75 573.936C1743.75 582.244 1742.54 589.882 1740.13 596.85C1737.72 603.684 1734.24 609.58 1729.68 614.538C1725.12 619.362 1719.63 623.114 1713.2 625.794C1706.9 628.474 1699.8 629.814 1691.89 629.814C1684.12 629.814 1677.02 628.474 1670.59 625.794C1664.29 623.114 1658.86 619.362 1654.31 614.538C1649.75 609.58 1646.2 603.684 1643.65 596.85C1641.11 589.882 1639.83 582.244 1639.83 573.936C1639.83 565.628 1641.11 558.057 1643.65 551.223C1646.33 544.389 1649.95 538.56 1654.51 533.736C1659.2 528.912 1664.69 525.16 1670.99 522.48C1677.42 519.8 1684.39 518.46 1691.89 518.46C1699.53 518.46 1706.5 519.8 1712.8 522.48C1719.23 525.16 1724.72 528.912 1729.28 533.736C1733.83 538.56 1737.39 544.389 1739.93 551.223C1742.48 558.057 1743.75 565.628 1743.75 573.936ZM1713.2 573.936C1713.2 564.69 1711.32 557.454 1707.57 552.228C1703.95 546.868 1698.73 544.188 1691.89 544.188C1685.06 544.188 1679.77 546.868 1676.01 552.228C1672.26 557.454 1670.39 564.69 1670.39 573.936C1670.39 583.182 1672.26 590.552 1676.01 596.046C1679.77 601.406 1685.06 604.086 1691.89 604.086C1698.73 604.086 1703.95 601.406 1707.57 596.046C1711.32 590.552 1713.2 583.182 1713.2 573.936ZM1828.91 566.298C1826.23 576.482 1823.35 586.599 1820.27 596.649C1817.32 606.699 1814.17 616.816 1810.82 627H1787.51C1785.1 621.372 1782.48 614.672 1779.67 606.9C1776.86 599.128 1773.91 590.686 1770.83 581.574C1767.88 572.328 1764.8 562.613 1761.58 552.429C1758.5 542.111 1755.48 531.726 1752.53 521.274H1784.09C1785.16 526.098 1786.3 531.391 1787.51 537.153C1788.85 542.781 1790.19 548.61 1791.53 554.64C1793 560.67 1794.48 566.767 1795.95 572.931C1797.56 578.961 1799.17 584.79 1800.77 590.418C1802.52 584.522 1804.19 578.492 1805.8 572.328C1807.54 566.164 1809.15 560.134 1810.62 554.238C1812.23 548.208 1813.71 542.446 1815.05 536.952C1816.52 531.324 1817.79 526.098 1818.86 521.274H1840.57C1841.64 526.098 1842.85 531.324 1844.19 536.952C1845.53 542.446 1846.94 548.208 1848.41 554.238C1849.89 560.134 1851.43 566.164 1853.03 572.328C1854.64 578.492 1856.32 584.522 1858.06 590.418C1859.67 584.79 1861.28 578.961 1862.88 572.931C1864.49 566.767 1865.97 560.67 1867.31 554.64C1868.78 548.61 1870.12 542.781 1871.33 537.153C1872.67 531.391 1873.87 526.098 1874.94 521.274H1906.1C1903.15 531.726 1900.07 542.111 1896.85 552.429C1893.77 562.613 1890.69 572.328 1887.61 581.574C1884.66 590.686 1881.71 599.128 1878.76 606.9C1875.95 614.672 1873.34 621.372 1870.92 627H1847.61C1844.26 616.816 1840.97 606.699 1837.76 596.649C1834.54 586.599 1831.59 576.482 1828.91 566.298ZM1964.42 629.01C1955.71 628.876 1948.61 627.938 1943.12 626.196C1937.76 624.454 1933.47 622.042 1930.25 618.96C1927.17 615.744 1925.03 611.925 1923.82 607.503C1922.75 602.947 1922.21 597.855 1922.21 592.227V475.848L1952.16 471.024V586.197C1952.16 588.877 1952.36 591.289 1952.77 593.433C1953.17 595.577 1953.91 597.386 1954.98 598.86C1956.18 600.334 1957.86 601.54 1960 602.478C1962.15 603.416 1965.03 604.019 1968.65 604.287L1964.42 629.01Z" fill="#404040"/>
</svg>
