<svg width="2441" height="712" viewBox="0 0 2441 712" fill="none" xmlns="http://www.w3.org/2000/svg">
<circle cx="289" cy="289" r="289" fill="#0F9D58"/>
<path d="M318.648 450.88C271.328 450.88 235.208 437.72 210.288 411.4C185.648 385.08 173.328 347.7 173.328 299.26C173.328 275.18 177.108 253.76 184.668 235C192.228 215.96 202.588 200 215.748 187.12C228.908 173.96 244.588 164.02 262.788 157.3C280.988 150.58 300.728 147.22 322.008 147.22C334.328 147.22 345.528 148.2 355.608 150.16C365.688 151.84 374.508 153.94 382.068 156.46C389.628 158.7 395.928 161.08 400.968 163.6C406.008 166.12 409.648 168.08 411.888 169.48L392.988 222.4C384.028 217.64 373.528 213.58 361.488 210.22C349.728 206.86 336.288 205.18 321.168 205.18C311.088 205.18 301.148 206.86 291.348 210.22C281.828 213.58 273.288 219.04 265.728 226.6C258.448 233.88 252.568 243.4 248.088 255.16C243.608 266.92 241.368 281.2 241.368 298C241.368 311.44 242.768 324.04 245.568 335.8C248.648 347.28 253.408 357.22 259.848 365.62C266.568 374.02 275.248 380.74 285.888 385.78C296.528 390.54 309.408 392.92 324.528 392.92C334.048 392.92 342.588 392.36 350.148 391.24C357.708 390.12 364.428 388.86 370.308 387.46C376.188 385.78 381.368 383.96 385.848 382C390.328 380.04 394.388 378.22 398.028 376.54L416.088 429.04C406.848 434.64 393.828 439.68 377.028 444.16C360.228 448.64 340.768 450.88 318.648 450.88Z" fill="white"/>
<path d="M856.103 437.44C845.463 440.52 831.743 443.32 814.943 445.84C798.143 448.64 780.503 450.04 762.023 450.04C743.263 450.04 727.583 447.52 714.983 442.48C702.663 437.44 692.863 430.44 685.583 421.48C678.303 412.24 673.123 401.32 670.043 388.72C666.963 376.12 665.423 362.26 665.423 347.14V224.08H728.003V339.58C728.003 359.74 730.663 374.3 735.983 383.26C741.303 392.22 751.243 396.7 765.803 396.7C770.283 396.7 775.043 396.56 780.083 396.28C785.123 395.72 789.603 395.16 793.523 394.6V224.08H856.103V437.44ZM904.347 334.54C904.347 318.58 906.867 303.6 911.907 289.6C917.227 275.32 924.787 263 934.587 252.64C944.387 242 956.287 233.6 970.287 227.44C984.287 221.28 1000.25 218.2 1018.17 218.2C1029.93 218.2 1040.71 219.32 1050.51 221.56C1060.31 223.52 1069.83 226.46 1079.07 230.38L1066.05 280.36C1060.17 278.12 1053.73 276.16 1046.73 274.48C1039.73 272.8 1031.89 271.96 1023.21 271.96C1004.73 271.96 990.867 277.7 981.627 289.18C972.667 300.66 968.187 315.78 968.187 334.54C968.187 354.42 972.387 369.82 980.787 380.74C989.467 391.66 1004.45 397.12 1025.73 397.12C1033.29 397.12 1041.41 396.42 1050.09 395.02C1058.77 393.62 1066.75 391.38 1074.03 388.3L1082.85 439.54C1075.57 442.62 1066.47 445.28 1055.55 447.52C1044.63 449.76 1032.59 450.88 1019.43 450.88C999.267 450.88 981.907 447.94 967.347 442.06C952.787 435.9 940.747 427.64 931.227 417.28C921.987 406.92 915.127 394.74 910.647 380.74C906.447 366.46 904.347 351.06 904.347 334.54ZM1313.43 437.44C1302.79 440.52 1289.07 443.32 1272.27 445.84C1255.47 448.64 1237.83 450.04 1219.35 450.04C1200.59 450.04 1184.91 447.52 1172.31 442.48C1159.99 437.44 1150.19 430.44 1142.91 421.48C1135.63 412.24 1130.45 401.32 1127.37 388.72C1124.29 376.12 1122.75 362.26 1122.75 347.14V224.08H1185.33V339.58C1185.33 359.74 1187.99 374.3 1193.31 383.26C1198.63 392.22 1208.57 396.7 1223.13 396.7C1227.61 396.7 1232.37 396.56 1237.41 396.28C1242.45 395.72 1246.93 395.16 1250.85 394.6V224.08H1313.43V437.44ZM1493.55 327.82C1493.55 307.66 1490.89 293.38 1485.57 284.98C1480.53 276.58 1471.71 272.38 1459.11 272.38C1455.19 272.38 1451.13 272.66 1446.93 273.22C1442.73 273.5 1438.67 273.92 1434.75 274.48V445H1372.17V231.64C1377.49 230.24 1383.65 228.84 1390.65 227.44C1397.93 225.76 1405.49 224.36 1413.33 223.24C1421.45 221.84 1429.71 220.86 1438.11 220.3C1446.51 219.46 1454.77 219.04 1462.89 219.04C1478.85 219.04 1491.73 221.14 1501.53 225.34C1511.61 229.26 1519.87 234.02 1526.31 239.62C1535.27 233.18 1545.49 228.14 1556.97 224.5C1568.73 220.86 1579.51 219.04 1589.31 219.04C1606.95 219.04 1621.37 221.56 1632.57 226.6C1644.05 231.36 1653.15 238.22 1659.87 247.18C1666.59 256.14 1671.21 266.78 1673.73 279.1C1676.25 291.42 1677.51 305.14 1677.51 320.26V445H1614.93V327.82C1614.93 307.66 1612.27 293.38 1606.95 284.98C1601.91 276.58 1593.09 272.38 1580.49 272.38C1577.13 272.38 1572.37 273.22 1566.21 274.9C1560.33 276.58 1555.43 278.68 1551.51 281.2C1553.47 287.64 1554.73 294.5 1555.29 301.78C1555.85 308.78 1556.13 316.34 1556.13 324.46V445H1493.55V327.82ZM1875.88 332.86C1875.88 292.54 1861.04 272.38 1831.36 272.38C1824.92 272.38 1818.48 273.22 1812.04 274.9C1805.88 276.58 1800.84 278.68 1796.92 281.2V395.02C1800 395.58 1803.92 396.14 1808.68 396.7C1813.44 396.98 1818.62 397.12 1824.22 397.12C1841.3 397.12 1854.18 391.24 1862.86 379.48C1871.54 367.72 1875.88 352.18 1875.88 332.86ZM1939.72 334.54C1939.72 352.18 1937.06 368.14 1931.74 382.42C1926.7 396.7 1919.28 408.88 1909.48 418.96C1899.68 429.04 1887.64 436.88 1873.36 442.48C1859.08 447.8 1842.84 450.46 1824.64 450.46C1817.08 450.46 1809.1 450.04 1800.7 449.2C1792.58 448.64 1784.46 447.8 1776.34 446.68C1768.5 445.56 1760.94 444.3 1753.66 442.9C1746.38 441.22 1739.94 439.54 1734.34 437.86V129.16L1796.92 119.08V229.12C1803.92 226.04 1811.2 223.66 1818.76 221.98C1826.32 220.3 1834.44 219.46 1843.12 219.46C1858.8 219.46 1872.66 222.26 1884.7 227.86C1896.74 233.18 1906.82 240.88 1914.94 250.96C1923.06 261.04 1929.22 273.22 1933.42 287.5C1937.62 301.5 1939.72 317.18 1939.72 334.54ZM1977.32 336.22C1977.32 316.62 1980.26 299.54 1986.14 284.98C1992.3 270.14 2000.28 257.82 2010.08 248.02C2019.88 238.22 2031.08 230.8 2043.68 225.76C2056.56 220.72 2069.72 218.2 2083.16 218.2C2114.52 218.2 2139.3 227.86 2157.5 247.18C2175.7 266.22 2184.8 294.36 2184.8 331.6C2184.8 335.24 2184.66 339.3 2184.38 343.78C2184.1 347.98 2183.82 351.76 2183.54 355.12H2041.58C2042.98 368 2049 378.22 2059.64 385.78C2070.28 393.34 2084.56 397.12 2102.48 397.12C2113.96 397.12 2125.16 396.14 2136.08 394.18C2147.28 391.94 2156.38 389.28 2163.38 386.2L2171.78 437.02C2168.42 438.7 2163.94 440.38 2158.34 442.06C2152.74 443.74 2146.44 445.14 2139.44 446.26C2132.72 447.66 2125.44 448.78 2117.6 449.62C2109.76 450.46 2101.92 450.88 2094.08 450.88C2074.2 450.88 2056.84 447.94 2042 442.06C2027.44 436.18 2015.26 428.2 2005.46 418.12C1995.94 407.76 1988.8 395.58 1984.04 381.58C1979.56 367.58 1977.32 352.46 1977.32 336.22ZM2124.32 312.28C2124.04 306.96 2123.06 301.78 2121.38 296.74C2119.98 291.7 2117.6 287.22 2114.24 283.3C2111.16 279.38 2107.1 276.16 2102.06 273.64C2097.3 271.12 2091.28 269.86 2084 269.86C2077 269.86 2070.98 271.12 2065.94 273.64C2060.9 275.88 2056.7 278.96 2053.34 282.88C2049.98 286.8 2047.32 291.42 2045.36 296.74C2043.68 301.78 2042.42 306.96 2041.58 312.28H2124.32ZM2366.23 279.52C2360.63 278.12 2354.05 276.72 2346.49 275.32C2338.93 273.64 2330.81 272.8 2322.13 272.8C2318.21 272.8 2313.45 273.22 2307.85 274.06C2302.53 274.62 2298.47 275.32 2295.67 276.16V445H2233.09V235.84C2244.29 231.92 2257.45 228.28 2272.57 224.92C2287.97 221.28 2305.05 219.46 2323.81 219.46C2327.17 219.46 2331.23 219.74 2335.99 220.3C2340.75 220.58 2345.51 221.14 2350.27 221.98C2355.03 222.54 2359.79 223.38 2364.55 224.5C2369.31 225.34 2373.37 226.46 2376.73 227.86L2366.23 279.52Z" fill="#0F9D58"/>
<path d="M739.54 612.26C739.54 591.14 731.767 580.58 716.22 580.58C712.847 580.58 709.473 581.02 706.1 581.9C702.873 582.78 700.233 583.88 698.18 585.2V644.82C699.793 645.113 701.847 645.407 704.34 645.7C706.833 645.847 709.547 645.92 712.48 645.92C721.427 645.92 728.173 642.84 732.72 636.68C737.267 630.52 739.54 622.38 739.54 612.26ZM772.98 613.14C772.98 622.38 771.587 630.74 768.8 638.22C766.16 645.7 762.273 652.08 757.14 657.36C752.007 662.64 745.7 666.747 738.22 669.68C730.74 672.467 722.233 673.86 712.7 673.86C708.74 673.86 704.56 673.64 700.16 673.2C695.907 672.907 691.653 672.467 687.4 671.88C683.293 671.293 679.333 670.633 675.52 669.9C671.707 669.02 668.333 668.14 665.4 667.26V505.56L698.18 500.28V557.92C701.847 556.307 705.66 555.06 709.62 554.18C713.58 553.3 717.833 552.86 722.38 552.86C730.593 552.86 737.853 554.327 744.16 557.26C750.467 560.047 755.747 564.08 760 569.36C764.253 574.64 767.48 581.02 769.68 588.5C771.88 595.833 772.98 604.047 772.98 613.14ZM897.906 555.28C891.306 577.573 884.412 598.473 877.226 617.98C870.039 637.487 862.192 656.407 853.686 674.74C850.606 681.34 847.526 686.913 844.446 691.46C841.366 696.153 837.992 699.967 834.326 702.9C830.659 705.98 826.479 708.18 821.786 709.5C817.239 710.967 811.886 711.7 805.726 711.7C800.592 711.7 795.826 711.187 791.426 710.16C787.172 709.28 783.652 708.253 780.866 707.08L786.586 680.9C789.959 682.073 792.966 682.88 795.606 683.32C798.246 683.76 801.032 683.98 803.966 683.98C809.832 683.98 814.306 682.367 817.386 679.14C820.612 676.06 823.326 671.733 825.526 666.16C818.046 651.493 810.566 635.067 803.086 616.88C795.606 598.547 788.566 578.013 781.966 555.28H816.726C818.192 561 819.879 567.233 821.786 573.98C823.839 580.58 825.966 587.327 828.166 594.22C830.366 600.967 832.566 607.567 834.766 614.02C837.112 620.473 839.312 626.34 841.366 631.62C843.272 626.34 845.252 620.473 847.306 614.02C849.359 607.567 851.339 600.967 853.246 594.22C855.299 587.327 857.206 580.58 858.966 573.98C860.872 567.233 862.559 561 864.026 555.28H897.906Z" fill="#737373"/>
<path d="M993.694 638.473C995.168 638.607 996.843 638.741 998.719 638.875C1000.73 638.875 1003.07 638.875 1005.75 638.875C1021.43 638.875 1033.02 634.922 1040.53 627.016C1048.16 619.11 1051.98 608.189 1051.98 594.253C1051.98 579.647 1048.37 568.592 1041.13 561.088C1033.89 553.584 1022.44 549.832 1006.76 549.832C1004.61 549.832 1002.4 549.899 1000.13 550.033C997.848 550.033 995.704 550.167 993.694 550.435V638.473ZM1084.34 594.253C1084.34 606.313 1082.47 616.832 1078.72 625.81C1074.96 634.788 1069.6 642.225 1062.64 648.121C1055.8 654.017 1047.43 658.439 1037.51 661.387C1027.6 664.335 1016.47 665.809 1004.15 665.809C998.518 665.809 991.952 665.541 984.448 665.005C976.944 664.603 969.574 663.665 962.338 662.191V526.516C969.574 525.176 977.078 524.305 984.85 523.903C992.756 523.367 999.523 523.099 1005.15 523.099C1017.08 523.099 1027.86 524.439 1037.51 527.119C1047.29 529.799 1055.67 534.02 1062.64 539.782C1069.6 545.544 1074.96 552.914 1078.72 561.892C1082.47 570.87 1084.34 581.657 1084.34 594.253ZM1103.5 611.941C1103.5 602.561 1104.91 594.387 1107.72 587.419C1110.67 580.317 1114.49 574.421 1119.18 569.731C1123.87 565.041 1129.23 561.49 1135.26 559.078C1141.42 556.666 1147.72 555.46 1154.15 555.46C1169.16 555.46 1181.02 560.083 1189.73 569.329C1198.44 578.441 1202.8 591.908 1202.8 609.73C1202.8 611.472 1202.73 613.415 1202.59 615.559C1202.46 617.569 1202.33 619.378 1202.19 620.986H1134.25C1134.92 627.15 1137.81 632.041 1142.9 635.659C1147.99 639.277 1154.82 641.086 1163.4 641.086C1168.89 641.086 1174.25 640.617 1179.48 639.679C1184.84 638.607 1189.19 637.334 1192.54 635.86L1196.56 660.181C1194.96 660.985 1192.81 661.789 1190.13 662.593C1187.45 663.397 1184.44 664.067 1181.09 664.603C1177.87 665.273 1174.39 665.809 1170.64 666.211C1166.88 666.613 1163.13 666.814 1159.38 666.814C1149.87 666.814 1141.56 665.407 1134.46 662.593C1127.49 659.779 1121.66 655.96 1116.97 651.136C1112.41 646.178 1109 640.349 1106.72 633.649C1104.57 626.949 1103.5 619.713 1103.5 611.941ZM1173.85 600.484C1173.72 597.938 1173.25 595.459 1172.44 593.047C1171.77 590.635 1170.64 588.491 1169.03 586.615C1167.55 584.739 1165.61 583.198 1163.2 581.992C1160.92 580.786 1158.04 580.183 1154.56 580.183C1151.21 580.183 1148.32 580.786 1145.91 581.992C1143.5 583.064 1141.49 584.538 1139.88 586.414C1138.27 588.29 1137 590.501 1136.06 593.047C1135.26 595.459 1134.66 597.938 1134.25 600.484H1173.85ZM1268.12 666.01C1259.41 665.876 1252.3 664.938 1246.81 663.196C1241.45 661.454 1237.16 659.042 1233.95 655.96C1230.86 652.744 1228.72 648.925 1227.51 644.503C1226.44 639.947 1225.91 634.855 1225.91 629.227V512.848L1255.86 508.024V623.197C1255.86 625.877 1256.06 628.289 1256.46 630.433C1256.86 632.577 1257.6 634.386 1258.67 635.86C1259.88 637.334 1261.55 638.54 1263.69 639.478C1265.84 640.416 1268.72 641.019 1272.34 641.287L1268.12 666.01ZM1319.45 664H1289.5V558.274H1319.45V664ZM1322.27 527.722C1322.27 533.216 1320.46 537.571 1316.84 540.787C1313.36 543.869 1309.2 545.41 1304.38 545.41C1299.55 545.41 1295.33 543.869 1291.72 540.787C1288.23 537.571 1286.49 533.216 1286.49 527.722C1286.49 522.228 1288.23 517.94 1291.72 514.858C1295.33 511.642 1299.55 510.034 1304.38 510.034C1309.2 510.034 1313.36 511.642 1316.84 514.858C1320.46 517.94 1322.27 522.228 1322.27 527.722ZM1377.96 642.493C1383.45 642.493 1387.34 641.957 1389.62 640.885C1391.89 639.813 1393.03 637.736 1393.03 634.654C1393.03 632.242 1391.56 630.165 1388.61 628.423C1385.66 626.547 1381.17 624.47 1375.14 622.192C1370.45 620.45 1366.17 618.641 1362.28 616.765C1358.53 614.889 1355.31 612.678 1352.63 610.132C1349.95 607.452 1347.87 604.303 1346.4 600.685C1344.93 597.067 1344.19 592.712 1344.19 587.62C1344.19 577.704 1347.87 569.865 1355.24 564.103C1362.61 558.341 1372.73 555.46 1385.6 555.46C1392.03 555.46 1398.19 556.063 1404.09 557.269C1409.98 558.341 1414.67 559.547 1418.16 560.887L1412.93 584.203C1409.45 582.997 1405.63 581.925 1401.47 580.987C1397.45 580.049 1392.9 579.58 1387.81 579.58C1378.43 579.58 1373.74 582.193 1373.74 587.419C1373.74 588.625 1373.94 589.697 1374.34 590.635C1374.74 591.573 1375.55 592.511 1376.75 593.449C1377.96 594.253 1379.57 595.191 1381.58 596.263C1383.72 597.201 1386.4 598.273 1389.62 599.479C1396.18 601.891 1401.61 604.303 1405.9 606.715C1410.18 608.993 1413.53 611.539 1415.95 614.353C1418.49 617.033 1420.23 620.048 1421.17 623.398C1422.24 626.748 1422.78 630.634 1422.78 635.056C1422.78 645.508 1418.83 653.414 1410.92 658.774C1403.15 664.134 1392.09 666.814 1377.76 666.814C1368.38 666.814 1360.54 666.01 1354.24 664.402C1348.08 662.794 1343.79 661.454 1341.38 660.382L1346.4 636.061C1351.49 638.071 1356.72 639.679 1362.08 640.885C1367.44 641.957 1372.73 642.493 1377.96 642.493ZM1445.16 664V512.848L1475.11 508.024V558.676C1477.12 558.006 1479.67 557.403 1482.75 556.867C1485.96 556.197 1489.05 555.862 1491.99 555.862C1500.57 555.862 1507.67 557.068 1513.3 559.48C1519.06 561.758 1523.62 565.041 1526.97 569.329C1530.45 573.617 1532.86 578.709 1534.2 584.605C1535.68 590.501 1536.42 597.067 1536.42 604.303V664H1506.47V607.921C1506.47 598.273 1505.19 591.439 1502.65 587.419C1500.24 583.399 1495.68 581.389 1488.98 581.389C1486.3 581.389 1483.75 581.657 1481.34 582.193C1479.06 582.595 1476.99 583.064 1475.11 583.6V664H1445.16ZM1660.25 665.809C1652.61 665.809 1644.98 665.541 1637.34 665.005C1629.83 664.603 1622 663.531 1613.82 661.789V526.717C1620.25 525.511 1627.29 524.64 1634.93 524.104C1642.56 523.434 1649.67 523.099 1656.23 523.099C1665.08 523.099 1673.18 523.769 1680.55 525.109C1688.06 526.315 1694.49 528.459 1699.85 531.541C1705.21 534.623 1709.36 538.71 1712.31 543.802C1715.39 548.76 1716.93 554.924 1716.93 562.294C1716.93 573.416 1711.57 582.193 1700.85 588.625C1709.7 591.975 1715.73 596.531 1718.94 602.293C1722.16 608.055 1723.77 614.554 1723.77 621.79C1723.77 636.396 1718.41 647.384 1707.69 654.754C1697.1 662.124 1681.29 665.809 1660.25 665.809ZM1644.37 603.298V639.277C1646.65 639.545 1649.13 639.746 1651.81 639.88C1654.49 640.014 1657.44 640.081 1660.65 640.081C1670.03 640.081 1677.61 638.741 1683.37 636.061C1689.13 633.381 1692.01 628.423 1692.01 621.187C1692.01 614.755 1689.6 610.199 1684.77 607.519C1679.95 604.705 1673.05 603.298 1664.07 603.298H1644.37ZM1644.37 579.379H1659.65C1669.3 579.379 1676.2 578.173 1680.35 575.761C1684.51 573.215 1686.58 569.195 1686.58 563.701C1686.58 558.073 1684.44 554.12 1680.15 551.842C1675.86 549.564 1669.57 548.425 1661.26 548.425C1658.58 548.425 1655.7 548.492 1652.61 548.626C1649.53 548.626 1646.79 548.76 1644.37 549.028V579.379ZM1845.75 610.936C1845.75 619.244 1844.54 626.882 1842.13 633.85C1839.72 640.684 1836.24 646.58 1831.68 651.538C1827.12 656.362 1821.63 660.114 1815.2 662.794C1808.9 665.474 1801.8 666.814 1793.89 666.814C1786.12 666.814 1779.02 665.474 1772.59 662.794C1766.29 660.114 1760.86 656.362 1756.31 651.538C1751.75 646.58 1748.2 640.684 1745.65 633.85C1743.11 626.882 1741.83 619.244 1741.83 610.936C1741.83 602.628 1743.11 595.057 1745.65 588.223C1748.33 581.389 1751.95 575.56 1756.51 570.736C1761.2 565.912 1766.69 562.16 1772.99 559.48C1779.42 556.8 1786.39 555.46 1793.89 555.46C1801.53 555.46 1808.5 556.8 1814.8 559.48C1821.23 562.16 1826.72 565.912 1831.28 570.736C1835.83 575.56 1839.39 581.389 1841.93 588.223C1844.48 595.057 1845.75 602.628 1845.75 610.936ZM1815.2 610.936C1815.2 601.69 1813.32 594.454 1809.57 589.228C1805.95 583.868 1800.73 581.188 1793.89 581.188C1787.06 581.188 1781.77 583.868 1778.01 589.228C1774.26 594.454 1772.39 601.69 1772.39 610.936C1772.39 620.182 1774.26 627.552 1778.01 633.046C1781.77 638.406 1787.06 641.086 1793.89 641.086C1800.73 641.086 1805.95 638.406 1809.57 633.046C1813.32 627.552 1815.2 620.182 1815.2 610.936ZM1930.91 603.298C1928.23 613.482 1925.35 623.599 1922.27 633.649C1919.32 643.699 1916.17 653.816 1912.82 664H1889.51C1887.1 658.372 1884.48 651.672 1881.67 643.9C1878.86 636.128 1875.91 627.686 1872.83 618.574C1869.88 609.328 1866.8 599.613 1863.58 589.429C1860.5 579.111 1857.48 568.726 1854.53 558.274H1886.09C1887.16 563.098 1888.3 568.391 1889.51 574.153C1890.85 579.781 1892.19 585.61 1893.53 591.64C1895 597.67 1896.48 603.767 1897.95 609.931C1899.56 615.961 1901.17 621.79 1902.77 627.418C1904.52 621.522 1906.19 615.492 1907.8 609.328C1909.54 603.164 1911.15 597.134 1912.62 591.238C1914.23 585.208 1915.71 579.446 1917.05 573.952C1918.52 568.324 1919.79 563.098 1920.86 558.274H1942.57C1943.64 563.098 1944.85 568.324 1946.19 573.952C1947.53 579.446 1948.94 585.208 1950.41 591.238C1951.89 597.134 1953.43 603.164 1955.03 609.328C1956.64 615.492 1958.32 621.522 1960.06 627.418C1961.67 621.79 1963.28 615.961 1964.88 609.931C1966.49 603.767 1967.97 597.67 1969.31 591.64C1970.78 585.61 1972.12 579.781 1973.33 574.153C1974.67 568.391 1975.87 563.098 1976.94 558.274H2008.1C2005.15 568.726 2002.07 579.111 1998.85 589.429C1995.77 599.613 1992.69 609.328 1989.61 618.574C1986.66 627.686 1983.71 636.128 1980.76 643.9C1977.95 651.672 1975.34 658.372 1972.92 664H1949.61C1946.26 653.816 1942.97 643.699 1939.76 633.649C1936.54 623.599 1933.59 613.482 1930.91 603.298ZM2066.42 666.01C2057.71 665.876 2050.61 664.938 2045.12 663.196C2039.76 661.454 2035.47 659.042 2032.25 655.96C2029.17 652.744 2027.03 648.925 2025.82 644.503C2024.75 639.947 2024.21 634.855 2024.21 629.227V512.848L2054.16 508.024V623.197C2054.16 625.877 2054.36 628.289 2054.77 630.433C2055.17 632.577 2055.91 634.386 2056.98 635.86C2058.18 637.334 2059.86 638.54 2062 639.478C2064.15 640.416 2067.03 641.019 2070.65 641.287L2066.42 666.01Z" fill="#404040"/>
</svg>
