<svg width="2348" height="675" viewBox="0 0 2348 675" fill="none" xmlns="http://www.w3.org/2000/svg">
<path d="M499 279.5C499 417.295 387.295 529 249.5 529C111.705 529 0 417.295 0 279.5C0 141.705 111.705 30 249.5 30C387.295 30 499 141.705 499 279.5Z" fill="#0F9D58"/>
<path d="M275.096 419.255C234.243 419.255 203.06 407.893 181.546 385.171C160.274 362.448 149.638 330.177 149.638 288.358C149.638 267.569 152.901 249.077 159.428 232.881C165.955 216.443 174.899 202.664 186.26 191.545C197.621 180.183 211.158 171.602 226.871 165.8C242.583 159.999 259.625 157.098 277.997 157.098C288.633 157.098 298.302 157.944 307.004 159.636C315.707 161.087 323.321 162.9 329.848 165.075C336.374 167.009 341.813 169.064 346.165 171.239C350.516 173.415 353.658 175.107 355.592 176.316L339.275 222.003C331.54 217.893 322.475 214.388 312.081 211.488C301.928 208.587 290.325 207.136 277.271 207.136C268.569 207.136 259.988 208.587 251.527 211.488C243.308 214.388 235.936 219.102 229.409 225.629C223.124 231.914 218.048 240.133 214.18 250.285C210.312 260.438 208.378 272.766 208.378 287.27C208.378 298.873 209.587 309.751 212.004 319.903C214.663 329.814 218.773 338.396 224.333 345.648C230.134 352.9 237.628 358.701 246.813 363.052C255.999 367.162 267.119 369.216 280.172 369.216C288.391 369.216 295.764 368.733 302.291 367.766C308.817 366.799 314.619 365.711 319.695 364.503C324.771 363.052 329.243 361.481 333.111 359.789C336.979 358.097 340.484 356.526 343.626 355.075L359.218 400.4C351.241 405.234 340 409.585 325.497 413.453C310.993 417.321 294.193 419.255 275.096 419.255Z" fill="white"/>
<path d="M763.103 398.44C752.463 401.52 738.743 404.32 721.943 406.84C705.143 409.64 687.503 411.04 669.023 411.04C650.263 411.04 634.583 408.52 621.983 403.48C609.663 398.44 599.863 391.44 592.583 382.48C585.303 373.24 580.123 362.32 577.043 349.72C573.963 337.12 572.423 323.26 572.423 308.14V185.08H635.003V300.58C635.003 320.74 637.663 335.3 642.983 344.26C648.303 353.22 658.243 357.7 672.803 357.7C677.283 357.7 682.043 357.56 687.083 357.28C692.123 356.72 696.603 356.16 700.523 355.6V185.08H763.103V398.44ZM811.347 295.54C811.347 279.58 813.867 264.6 818.907 250.6C824.227 236.32 831.787 224 841.587 213.64C851.387 203 863.287 194.6 877.287 188.44C891.287 182.28 907.247 179.2 925.167 179.2C936.927 179.2 947.707 180.32 957.507 182.56C967.307 184.52 976.827 187.46 986.067 191.38L973.047 241.36C967.167 239.12 960.727 237.16 953.727 235.48C946.727 233.8 938.887 232.96 930.207 232.96C911.727 232.96 897.867 238.7 888.627 250.18C879.667 261.66 875.187 276.78 875.187 295.54C875.187 315.42 879.387 330.82 887.787 341.74C896.467 352.66 911.447 358.12 932.727 358.12C940.287 358.12 948.407 357.42 957.087 356.02C965.767 354.62 973.747 352.38 981.027 349.3L989.847 400.54C982.567 403.62 973.467 406.28 962.547 408.52C951.627 410.76 939.587 411.88 926.427 411.88C906.267 411.88 888.907 408.94 874.347 403.06C859.787 396.9 847.747 388.64 838.227 378.28C828.987 367.92 822.127 355.74 817.647 341.74C813.447 327.46 811.347 312.06 811.347 295.54ZM1220.43 398.44C1209.79 401.52 1196.07 404.32 1179.27 406.84C1162.47 409.64 1144.83 411.04 1126.35 411.04C1107.59 411.04 1091.91 408.52 1079.31 403.48C1066.99 398.44 1057.19 391.44 1049.91 382.48C1042.63 373.24 1037.45 362.32 1034.37 349.72C1031.29 337.12 1029.75 323.26 1029.75 308.14V185.08H1092.33V300.58C1092.33 320.74 1094.99 335.3 1100.31 344.26C1105.63 353.22 1115.57 357.7 1130.13 357.7C1134.61 357.7 1139.37 357.56 1144.41 357.28C1149.45 356.72 1153.93 356.16 1157.85 355.6V185.08H1220.43V398.44ZM1400.55 288.82C1400.55 268.66 1397.89 254.38 1392.57 245.98C1387.53 237.58 1378.71 233.38 1366.11 233.38C1362.19 233.38 1358.13 233.66 1353.93 234.22C1349.73 234.5 1345.67 234.92 1341.75 235.48V406H1279.17V192.64C1284.49 191.24 1290.65 189.84 1297.65 188.44C1304.93 186.76 1312.49 185.36 1320.33 184.24C1328.45 182.84 1336.71 181.86 1345.11 181.3C1353.51 180.46 1361.77 180.04 1369.89 180.04C1385.85 180.04 1398.73 182.14 1408.53 186.34C1418.61 190.26 1426.87 195.02 1433.31 200.62C1442.27 194.18 1452.49 189.14 1463.97 185.5C1475.73 181.86 1486.51 180.04 1496.31 180.04C1513.95 180.04 1528.37 182.56 1539.57 187.6C1551.05 192.36 1560.15 199.22 1566.87 208.18C1573.59 217.14 1578.21 227.78 1580.73 240.1C1583.25 252.42 1584.51 266.14 1584.51 281.26V406H1521.93V288.82C1521.93 268.66 1519.27 254.38 1513.95 245.98C1508.91 237.58 1500.09 233.38 1487.49 233.38C1484.13 233.38 1479.37 234.22 1473.21 235.9C1467.33 237.58 1462.43 239.68 1458.51 242.2C1460.47 248.64 1461.73 255.5 1462.29 262.78C1462.85 269.78 1463.13 277.34 1463.13 285.46V406H1400.55V288.82ZM1782.88 293.86C1782.88 253.54 1768.04 233.38 1738.36 233.38C1731.92 233.38 1725.48 234.22 1719.04 235.9C1712.88 237.58 1707.84 239.68 1703.92 242.2V356.02C1707 356.58 1710.92 357.14 1715.68 357.7C1720.44 357.98 1725.62 358.12 1731.22 358.12C1748.3 358.12 1761.18 352.24 1769.86 340.48C1778.54 328.72 1782.88 313.18 1782.88 293.86ZM1846.72 295.54C1846.72 313.18 1844.06 329.14 1838.74 343.42C1833.7 357.7 1826.28 369.88 1816.48 379.96C1806.68 390.04 1794.64 397.88 1780.36 403.48C1766.08 408.8 1749.84 411.46 1731.64 411.46C1724.08 411.46 1716.1 411.04 1707.7 410.2C1699.58 409.64 1691.46 408.8 1683.34 407.68C1675.5 406.56 1667.94 405.3 1660.66 403.9C1653.38 402.22 1646.94 400.54 1641.34 398.86V90.16L1703.92 80.08V190.12C1710.92 187.04 1718.2 184.66 1725.76 182.98C1733.32 181.3 1741.44 180.46 1750.12 180.46C1765.8 180.46 1779.66 183.26 1791.7 188.86C1803.74 194.18 1813.82 201.88 1821.94 211.96C1830.06 222.04 1836.22 234.22 1840.42 248.5C1844.62 262.5 1846.72 278.18 1846.72 295.54ZM1884.32 297.22C1884.32 277.62 1887.26 260.54 1893.14 245.98C1899.3 231.14 1907.28 218.82 1917.08 209.02C1926.88 199.22 1938.08 191.8 1950.68 186.76C1963.56 181.72 1976.72 179.2 1990.16 179.2C2021.52 179.2 2046.3 188.86 2064.5 208.18C2082.7 227.22 2091.8 255.36 2091.8 292.6C2091.8 296.24 2091.66 300.3 2091.38 304.78C2091.1 308.98 2090.82 312.76 2090.54 316.12H1948.58C1949.98 329 1956 339.22 1966.64 346.78C1977.28 354.34 1991.56 358.12 2009.48 358.12C2020.96 358.12 2032.16 357.14 2043.08 355.18C2054.28 352.94 2063.38 350.28 2070.38 347.2L2078.78 398.02C2075.42 399.7 2070.94 401.38 2065.34 403.06C2059.74 404.74 2053.44 406.14 2046.44 407.26C2039.72 408.66 2032.44 409.78 2024.6 410.62C2016.76 411.46 2008.92 411.88 2001.08 411.88C1981.2 411.88 1963.84 408.94 1949 403.06C1934.44 397.18 1922.26 389.2 1912.46 379.12C1902.94 368.76 1895.8 356.58 1891.04 342.58C1886.56 328.58 1884.32 313.46 1884.32 297.22ZM2031.32 273.28C2031.04 267.96 2030.06 262.78 2028.38 257.74C2026.98 252.7 2024.6 248.22 2021.24 244.3C2018.16 240.38 2014.1 237.16 2009.06 234.64C2004.3 232.12 1998.28 230.86 1991 230.86C1984 230.86 1977.98 232.12 1972.94 234.64C1967.9 236.88 1963.7 239.96 1960.34 243.88C1956.98 247.8 1954.32 252.42 1952.36 257.74C1950.68 262.78 1949.42 267.96 1948.58 273.28H2031.32ZM2273.23 240.52C2267.63 239.12 2261.05 237.72 2253.49 236.32C2245.93 234.64 2237.81 233.8 2229.13 233.8C2225.21 233.8 2220.45 234.22 2214.85 235.06C2209.53 235.62 2205.47 236.32 2202.67 237.16V406H2140.09V196.84C2151.29 192.92 2164.45 189.28 2179.57 185.92C2194.97 182.28 2212.05 180.46 2230.81 180.46C2234.17 180.46 2238.23 180.74 2242.99 181.3C2247.75 181.58 2252.51 182.14 2257.27 182.98C2262.03 183.54 2266.79 184.38 2271.55 185.5C2276.31 186.34 2280.37 187.46 2283.73 188.86L2273.23 240.52Z" fill="#0F9D58"/>
<path d="M646.54 575.26C646.54 554.14 638.767 543.58 623.22 543.58C619.847 543.58 616.473 544.02 613.1 544.9C609.873 545.78 607.233 546.88 605.18 548.2V607.82C606.793 608.113 608.847 608.407 611.34 608.7C613.833 608.847 616.547 608.92 619.48 608.92C628.427 608.92 635.173 605.84 639.72 599.68C644.267 593.52 646.54 585.38 646.54 575.26ZM679.98 576.14C679.98 585.38 678.587 593.74 675.8 601.22C673.16 608.7 669.273 615.08 664.14 620.36C659.007 625.64 652.7 629.747 645.22 632.68C637.74 635.467 629.233 636.86 619.7 636.86C615.74 636.86 611.56 636.64 607.16 636.2C602.907 635.907 598.653 635.467 594.4 634.88C590.293 634.293 586.333 633.633 582.52 632.9C578.707 632.02 575.333 631.14 572.4 630.26V468.56L605.18 463.28V520.92C608.847 519.307 612.66 518.06 616.62 517.18C620.58 516.3 624.833 515.86 629.38 515.86C637.593 515.86 644.853 517.327 651.16 520.26C657.467 523.047 662.747 527.08 667 532.36C671.253 537.64 674.48 544.02 676.68 551.5C678.88 558.833 679.98 567.047 679.98 576.14ZM804.906 518.28C798.306 540.573 791.412 561.473 784.226 580.98C777.039 600.487 769.192 619.407 760.686 637.74C757.606 644.34 754.526 649.913 751.446 654.46C748.366 659.153 744.992 662.967 741.326 665.9C737.659 668.98 733.479 671.18 728.786 672.5C724.239 673.967 718.886 674.7 712.726 674.7C707.592 674.7 702.826 674.187 698.426 673.16C694.172 672.28 690.652 671.253 687.866 670.08L693.586 643.9C696.959 645.073 699.966 645.88 702.606 646.32C705.246 646.76 708.032 646.98 710.966 646.98C716.832 646.98 721.306 645.367 724.386 642.14C727.612 639.06 730.326 634.733 732.526 629.16C725.046 614.493 717.566 598.067 710.086 579.88C702.606 561.547 695.566 541.013 688.966 518.28H723.726C725.192 524 726.879 530.233 728.786 536.98C730.839 543.58 732.966 550.327 735.166 557.22C737.366 563.967 739.566 570.567 741.766 577.02C744.112 583.473 746.312 589.34 748.366 594.62C750.272 589.34 752.252 583.473 754.306 577.02C756.359 570.567 758.339 563.967 760.246 557.22C762.299 550.327 764.206 543.58 765.966 536.98C767.872 530.233 769.559 524 771.026 518.28H804.906Z" fill="#737373"/>
<path d="M900.694 601.473C902.168 601.607 903.843 601.741 905.719 601.875C907.729 601.875 910.074 601.875 912.754 601.875C928.432 601.875 940.023 597.922 947.527 590.016C955.165 582.11 958.984 571.189 958.984 557.253C958.984 542.647 955.366 531.592 948.13 524.088C940.894 516.584 929.437 512.832 913.759 512.832C911.615 512.832 909.404 512.899 907.126 513.033C904.848 513.033 902.704 513.167 900.694 513.435V601.473ZM991.345 557.253C991.345 569.313 989.469 579.832 985.717 588.81C981.965 597.788 976.605 605.225 969.637 611.121C962.803 617.017 954.428 621.439 944.512 624.387C934.596 627.335 923.474 628.809 911.146 628.809C905.518 628.809 898.952 628.541 891.448 628.005C883.944 627.603 876.574 626.665 869.338 625.191V489.516C876.574 488.176 884.078 487.305 891.85 486.903C899.756 486.367 906.523 486.099 912.151 486.099C924.077 486.099 934.864 487.439 944.512 490.119C954.294 492.799 962.669 497.02 969.637 502.782C976.605 508.544 981.965 515.914 985.717 524.892C989.469 533.87 991.345 544.657 991.345 557.253ZM1010.5 574.941C1010.5 565.561 1011.91 557.387 1014.72 550.419C1017.67 543.317 1021.49 537.421 1026.18 532.731C1030.87 528.041 1036.23 524.49 1042.26 522.078C1048.42 519.666 1054.72 518.46 1061.15 518.46C1076.16 518.46 1088.02 523.083 1096.73 532.329C1105.44 541.441 1109.8 554.908 1109.8 572.73C1109.8 574.472 1109.73 576.415 1109.59 578.559C1109.46 580.569 1109.33 582.378 1109.19 583.986H1041.25C1041.92 590.15 1044.81 595.041 1049.9 598.659C1054.99 602.277 1061.82 604.086 1070.4 604.086C1075.89 604.086 1081.25 603.617 1086.48 602.679C1091.84 601.607 1096.19 600.334 1099.54 598.86L1103.56 623.181C1101.96 623.985 1099.81 624.789 1097.13 625.593C1094.45 626.397 1091.44 627.067 1088.09 627.603C1084.87 628.273 1081.39 628.809 1077.64 629.211C1073.88 629.613 1070.13 629.814 1066.38 629.814C1056.87 629.814 1048.56 628.407 1041.46 625.593C1034.49 622.779 1028.66 618.96 1023.97 614.136C1019.41 609.178 1016 603.349 1013.72 596.649C1011.57 589.949 1010.5 582.713 1010.5 574.941ZM1080.85 563.484C1080.72 560.938 1080.25 558.459 1079.44 556.047C1078.77 553.635 1077.64 551.491 1076.03 549.615C1074.55 547.739 1072.61 546.198 1070.2 544.992C1067.92 543.786 1065.04 543.183 1061.56 543.183C1058.21 543.183 1055.32 543.786 1052.91 544.992C1050.5 546.064 1048.49 547.538 1046.88 549.414C1045.27 551.29 1044 553.501 1043.06 556.047C1042.26 558.459 1041.66 560.938 1041.25 563.484H1080.85ZM1175.12 629.01C1166.41 628.876 1159.3 627.938 1153.81 626.196C1148.45 624.454 1144.16 622.042 1140.95 618.96C1137.86 615.744 1135.72 611.925 1134.51 607.503C1133.44 602.947 1132.91 597.855 1132.91 592.227V475.848L1162.86 471.024V586.197C1162.86 588.877 1163.06 591.289 1163.46 593.433C1163.86 595.577 1164.6 597.386 1165.67 598.86C1166.88 600.334 1168.55 601.54 1170.69 602.478C1172.84 603.416 1175.72 604.019 1179.34 604.287L1175.12 629.01ZM1226.45 627H1196.5V521.274H1226.45V627ZM1229.27 490.722C1229.27 496.216 1227.46 500.571 1223.84 503.787C1220.36 506.869 1216.2 508.41 1211.38 508.41C1206.55 508.41 1202.33 506.869 1198.72 503.787C1195.23 500.571 1193.49 496.216 1193.49 490.722C1193.49 485.228 1195.23 480.94 1198.72 477.858C1202.33 474.642 1206.55 473.034 1211.38 473.034C1216.2 473.034 1220.36 474.642 1223.84 477.858C1227.46 480.94 1229.27 485.228 1229.27 490.722ZM1284.96 605.493C1290.45 605.493 1294.34 604.957 1296.62 603.885C1298.89 602.813 1300.03 600.736 1300.03 597.654C1300.03 595.242 1298.56 593.165 1295.61 591.423C1292.66 589.547 1288.17 587.47 1282.14 585.192C1277.45 583.45 1273.17 581.641 1269.28 579.765C1265.53 577.889 1262.31 575.678 1259.63 573.132C1256.95 570.452 1254.87 567.303 1253.4 563.685C1251.93 560.067 1251.19 555.712 1251.19 550.62C1251.19 540.704 1254.87 532.865 1262.24 527.103C1269.61 521.341 1279.73 518.46 1292.6 518.46C1299.03 518.46 1305.19 519.063 1311.09 520.269C1316.98 521.341 1321.67 522.547 1325.16 523.887L1319.93 547.203C1316.45 545.997 1312.63 544.925 1308.47 543.987C1304.45 543.049 1299.9 542.58 1294.81 542.58C1285.43 542.58 1280.74 545.193 1280.74 550.419C1280.74 551.625 1280.94 552.697 1281.34 553.635C1281.74 554.573 1282.55 555.511 1283.75 556.449C1284.96 557.253 1286.57 558.191 1288.58 559.263C1290.72 560.201 1293.4 561.273 1296.62 562.479C1303.18 564.891 1308.61 567.303 1312.9 569.715C1317.18 571.993 1320.53 574.539 1322.95 577.353C1325.49 580.033 1327.23 583.048 1328.17 586.398C1329.24 589.748 1329.78 593.634 1329.78 598.056C1329.78 608.508 1325.83 616.414 1317.92 621.774C1310.15 627.134 1299.09 629.814 1284.76 629.814C1275.38 629.814 1267.54 629.01 1261.24 627.402C1255.08 625.794 1250.79 624.454 1248.38 623.382L1253.4 599.061C1258.49 601.071 1263.72 602.679 1269.08 603.885C1274.44 604.957 1279.73 605.493 1284.96 605.493ZM1352.16 627V475.848L1382.11 471.024V521.676C1384.12 521.006 1386.67 520.403 1389.75 519.867C1392.96 519.197 1396.05 518.862 1398.99 518.862C1407.57 518.862 1414.67 520.068 1420.3 522.48C1426.06 524.758 1430.62 528.041 1433.97 532.329C1437.45 536.617 1439.86 541.709 1441.2 547.605C1442.68 553.501 1443.42 560.067 1443.42 567.303V627H1413.47V570.921C1413.47 561.273 1412.19 554.439 1409.65 550.419C1407.24 546.399 1402.68 544.389 1395.98 544.389C1393.3 544.389 1390.75 544.657 1388.34 545.193C1386.06 545.595 1383.99 546.064 1382.11 546.6V627H1352.16ZM1567.25 628.809C1559.61 628.809 1551.98 628.541 1544.34 628.005C1536.83 627.603 1529 626.531 1520.82 624.789V489.717C1527.25 488.511 1534.29 487.64 1541.93 487.104C1549.56 486.434 1556.67 486.099 1563.23 486.099C1572.08 486.099 1580.18 486.769 1587.55 488.109C1595.06 489.315 1601.49 491.459 1606.85 494.541C1612.21 497.623 1616.36 501.71 1619.31 506.802C1622.39 511.76 1623.93 517.924 1623.93 525.294C1623.93 536.416 1618.57 545.193 1607.85 551.625C1616.7 554.975 1622.73 559.531 1625.94 565.293C1629.16 571.055 1630.77 577.554 1630.77 584.79C1630.77 599.396 1625.41 610.384 1614.69 617.754C1604.1 625.124 1588.29 628.809 1567.25 628.809ZM1551.37 566.298V602.277C1553.65 602.545 1556.13 602.746 1558.81 602.88C1561.49 603.014 1564.44 603.081 1567.65 603.081C1577.03 603.081 1584.61 601.741 1590.37 599.061C1596.13 596.381 1599.01 591.423 1599.01 584.187C1599.01 577.755 1596.6 573.199 1591.77 570.519C1586.95 567.705 1580.05 566.298 1571.07 566.298H1551.37ZM1551.37 542.379H1566.65C1576.3 542.379 1583.2 541.173 1587.35 538.761C1591.51 536.215 1593.58 532.195 1593.58 526.701C1593.58 521.073 1591.44 517.12 1587.15 514.842C1582.86 512.564 1576.57 511.425 1568.26 511.425C1565.58 511.425 1562.7 511.492 1559.61 511.626C1556.53 511.626 1553.79 511.76 1551.37 512.028V542.379ZM1752.75 573.936C1752.75 582.244 1751.54 589.882 1749.13 596.85C1746.72 603.684 1743.24 609.58 1738.68 614.538C1734.12 619.362 1728.63 623.114 1722.2 625.794C1715.9 628.474 1708.8 629.814 1700.89 629.814C1693.12 629.814 1686.02 628.474 1679.59 625.794C1673.29 623.114 1667.86 619.362 1663.31 614.538C1658.75 609.58 1655.2 603.684 1652.65 596.85C1650.11 589.882 1648.83 582.244 1648.83 573.936C1648.83 565.628 1650.11 558.057 1652.65 551.223C1655.33 544.389 1658.95 538.56 1663.51 533.736C1668.2 528.912 1673.69 525.16 1679.99 522.48C1686.42 519.8 1693.39 518.46 1700.89 518.46C1708.53 518.46 1715.5 519.8 1721.8 522.48C1728.23 525.16 1733.72 528.912 1738.28 533.736C1742.83 538.56 1746.39 544.389 1748.93 551.223C1751.48 558.057 1752.75 565.628 1752.75 573.936ZM1722.2 573.936C1722.2 564.69 1720.32 557.454 1716.57 552.228C1712.95 546.868 1707.73 544.188 1700.89 544.188C1694.06 544.188 1688.77 546.868 1685.01 552.228C1681.26 557.454 1679.39 564.69 1679.39 573.936C1679.39 583.182 1681.26 590.552 1685.01 596.046C1688.77 601.406 1694.06 604.086 1700.89 604.086C1707.73 604.086 1712.95 601.406 1716.57 596.046C1720.32 590.552 1722.2 583.182 1722.2 573.936ZM1837.91 566.298C1835.23 576.482 1832.35 586.599 1829.27 596.649C1826.32 606.699 1823.17 616.816 1819.82 627H1796.51C1794.1 621.372 1791.48 614.672 1788.67 606.9C1785.86 599.128 1782.91 590.686 1779.83 581.574C1776.88 572.328 1773.8 562.613 1770.58 552.429C1767.5 542.111 1764.48 531.726 1761.53 521.274H1793.09C1794.16 526.098 1795.3 531.391 1796.51 537.153C1797.85 542.781 1799.19 548.61 1800.53 554.64C1802 560.67 1803.48 566.767 1804.95 572.931C1806.56 578.961 1808.17 584.79 1809.77 590.418C1811.52 584.522 1813.19 578.492 1814.8 572.328C1816.54 566.164 1818.15 560.134 1819.62 554.238C1821.23 548.208 1822.71 542.446 1824.05 536.952C1825.52 531.324 1826.79 526.098 1827.86 521.274H1849.57C1850.64 526.098 1851.85 531.324 1853.19 536.952C1854.53 542.446 1855.94 548.208 1857.41 554.238C1858.89 560.134 1860.43 566.164 1862.03 572.328C1863.64 578.492 1865.32 584.522 1867.06 590.418C1868.67 584.79 1870.28 578.961 1871.88 572.931C1873.49 566.767 1874.97 560.67 1876.31 554.64C1877.78 548.61 1879.12 542.781 1880.33 537.153C1881.67 531.391 1882.87 526.098 1883.94 521.274H1915.1C1912.15 531.726 1909.07 542.111 1905.85 552.429C1902.77 562.613 1899.69 572.328 1896.61 581.574C1893.66 590.686 1890.71 599.128 1887.76 606.9C1884.95 614.672 1882.34 621.372 1879.92 627H1856.61C1853.26 616.816 1849.97 606.699 1846.76 596.649C1843.54 586.599 1840.59 576.482 1837.91 566.298ZM1973.42 629.01C1964.71 628.876 1957.61 627.938 1952.12 626.196C1946.76 624.454 1942.47 622.042 1939.25 618.96C1936.17 615.744 1934.03 611.925 1932.82 607.503C1931.75 602.947 1931.21 597.855 1931.21 592.227V475.848L1961.16 471.024V586.197C1961.16 588.877 1961.36 591.289 1961.77 593.433C1962.17 595.577 1962.91 597.386 1963.98 598.86C1965.18 600.334 1966.86 601.54 1969 602.478C1971.15 603.416 1974.03 604.019 1977.65 604.287L1973.42 629.01Z" fill="#404040"/>
</svg>
