<svg width="2261" height="673" viewBox="0 0 2261 673" fill="none" xmlns="http://www.w3.org/2000/svg">
<path d="M429 284.5C429 402.965 332.965 499 214.5 499C96.0349 499 0 402.965 0 284.5C0 166.035 96.0349 70 214.5 70C332.965 70 429 166.035 429 284.5Z" fill="#0F9D58"/>
<path d="M236.505 404.65C201.384 404.65 174.575 394.882 156.079 375.347C137.791 355.812 128.647 328.068 128.647 292.115C128.647 274.243 131.452 258.344 137.063 244.42C142.675 230.289 150.364 218.443 160.131 208.883C169.899 199.116 181.537 191.738 195.045 186.75C208.553 181.763 223.205 179.269 238.999 179.269C248.143 179.269 256.456 179.996 263.938 181.451C271.419 182.698 277.965 184.257 283.577 186.127C289.188 187.789 293.864 189.556 297.604 191.426C301.345 193.297 304.047 194.751 305.709 195.791L291.682 235.069C285.031 231.536 277.238 228.522 268.302 226.028C259.573 223.534 249.598 222.288 238.376 222.288C230.894 222.288 223.517 223.534 216.243 226.028C209.177 228.522 202.838 232.575 197.227 238.186C191.824 243.589 187.46 250.655 184.135 259.383C180.81 268.112 179.147 278.711 179.147 291.18C179.147 301.155 180.186 310.507 182.264 319.236C184.55 327.756 188.083 335.134 192.863 341.368C197.851 347.603 204.293 352.591 212.19 356.332C220.087 359.864 229.647 361.631 240.87 361.631C247.935 361.631 254.274 361.215 259.885 360.384C265.496 359.553 270.484 358.618 274.848 357.578C279.212 356.332 283.057 354.981 286.382 353.526C289.707 352.071 292.721 350.72 295.422 349.473L308.827 388.44C301.969 392.596 292.305 396.337 279.836 399.662C267.367 402.987 252.923 404.65 236.505 404.65Z" fill="white"/>
<path d="M676.103 398.44C665.463 401.52 651.743 404.32 634.943 406.84C618.143 409.64 600.503 411.04 582.023 411.04C563.263 411.04 547.583 408.52 534.983 403.48C522.663 398.44 512.863 391.44 505.583 382.48C498.303 373.24 493.123 362.32 490.043 349.72C486.963 337.12 485.423 323.26 485.423 308.14V185.08H548.003V300.58C548.003 320.74 550.663 335.3 555.983 344.26C561.303 353.22 571.243 357.7 585.803 357.7C590.283 357.7 595.043 357.56 600.083 357.28C605.123 356.72 609.603 356.16 613.523 355.6V185.08H676.103V398.44ZM724.347 295.54C724.347 279.58 726.867 264.6 731.907 250.6C737.227 236.32 744.787 224 754.587 213.64C764.387 203 776.287 194.6 790.287 188.44C804.287 182.28 820.247 179.2 838.167 179.2C849.927 179.2 860.707 180.32 870.507 182.56C880.307 184.52 889.827 187.46 899.067 191.38L886.047 241.36C880.167 239.12 873.727 237.16 866.727 235.48C859.727 233.8 851.887 232.96 843.207 232.96C824.727 232.96 810.867 238.7 801.627 250.18C792.667 261.66 788.187 276.78 788.187 295.54C788.187 315.42 792.387 330.82 800.787 341.74C809.467 352.66 824.447 358.12 845.727 358.12C853.287 358.12 861.407 357.42 870.087 356.02C878.767 354.62 886.747 352.38 894.027 349.3L902.847 400.54C895.567 403.62 886.467 406.28 875.547 408.52C864.627 410.76 852.587 411.88 839.427 411.88C819.267 411.88 801.907 408.94 787.347 403.06C772.787 396.9 760.747 388.64 751.227 378.28C741.987 367.92 735.127 355.74 730.647 341.74C726.447 327.46 724.347 312.06 724.347 295.54ZM1133.43 398.44C1122.79 401.52 1109.07 404.32 1092.27 406.84C1075.47 409.64 1057.83 411.04 1039.35 411.04C1020.59 411.04 1004.91 408.52 992.307 403.48C979.987 398.44 970.187 391.44 962.907 382.48C955.627 373.24 950.447 362.32 947.367 349.72C944.287 337.12 942.747 323.26 942.747 308.14V185.08H1005.33V300.58C1005.33 320.74 1007.99 335.3 1013.31 344.26C1018.63 353.22 1028.57 357.7 1043.13 357.7C1047.61 357.7 1052.37 357.56 1057.41 357.28C1062.45 356.72 1066.93 356.16 1070.85 355.6V185.08H1133.43V398.44ZM1313.55 288.82C1313.55 268.66 1310.89 254.38 1305.57 245.98C1300.53 237.58 1291.71 233.38 1279.11 233.38C1275.19 233.38 1271.13 233.66 1266.93 234.22C1262.73 234.5 1258.67 234.92 1254.75 235.48V406H1192.17V192.64C1197.49 191.24 1203.65 189.84 1210.65 188.44C1217.93 186.76 1225.49 185.36 1233.33 184.24C1241.45 182.84 1249.71 181.86 1258.11 181.3C1266.51 180.46 1274.77 180.04 1282.89 180.04C1298.85 180.04 1311.73 182.14 1321.53 186.34C1331.61 190.26 1339.87 195.02 1346.31 200.62C1355.27 194.18 1365.49 189.14 1376.97 185.5C1388.73 181.86 1399.51 180.04 1409.31 180.04C1426.95 180.04 1441.37 182.56 1452.57 187.6C1464.05 192.36 1473.15 199.22 1479.87 208.18C1486.59 217.14 1491.21 227.78 1493.73 240.1C1496.25 252.42 1497.51 266.14 1497.51 281.26V406H1434.93V288.82C1434.93 268.66 1432.27 254.38 1426.95 245.98C1421.91 237.58 1413.09 233.38 1400.49 233.38C1397.13 233.38 1392.37 234.22 1386.21 235.9C1380.33 237.58 1375.43 239.68 1371.51 242.2C1373.47 248.64 1374.73 255.5 1375.29 262.78C1375.85 269.78 1376.13 277.34 1376.13 285.46V406H1313.55V288.82ZM1695.88 293.86C1695.88 253.54 1681.04 233.38 1651.36 233.38C1644.92 233.38 1638.48 234.22 1632.04 235.9C1625.88 237.58 1620.84 239.68 1616.92 242.2V356.02C1620 356.58 1623.92 357.14 1628.68 357.7C1633.44 357.98 1638.62 358.12 1644.22 358.12C1661.3 358.12 1674.18 352.24 1682.86 340.48C1691.54 328.72 1695.88 313.18 1695.88 293.86ZM1759.72 295.54C1759.72 313.18 1757.06 329.14 1751.74 343.42C1746.7 357.7 1739.28 369.88 1729.48 379.96C1719.68 390.04 1707.64 397.88 1693.36 403.48C1679.08 408.8 1662.84 411.46 1644.64 411.46C1637.08 411.46 1629.1 411.04 1620.7 410.2C1612.58 409.64 1604.46 408.8 1596.34 407.68C1588.5 406.56 1580.94 405.3 1573.66 403.9C1566.38 402.22 1559.94 400.54 1554.34 398.86V90.16L1616.92 80.08V190.12C1623.92 187.04 1631.2 184.66 1638.76 182.98C1646.32 181.3 1654.44 180.46 1663.12 180.46C1678.8 180.46 1692.66 183.26 1704.7 188.86C1716.74 194.18 1726.82 201.88 1734.94 211.96C1743.06 222.04 1749.22 234.22 1753.42 248.5C1757.62 262.5 1759.72 278.18 1759.72 295.54ZM1797.32 297.22C1797.32 277.62 1800.26 260.54 1806.14 245.98C1812.3 231.14 1820.28 218.82 1830.08 209.02C1839.88 199.22 1851.08 191.8 1863.68 186.76C1876.56 181.72 1889.72 179.2 1903.16 179.2C1934.52 179.2 1959.3 188.86 1977.5 208.18C1995.7 227.22 2004.8 255.36 2004.8 292.6C2004.8 296.24 2004.66 300.3 2004.38 304.78C2004.1 308.98 2003.82 312.76 2003.54 316.12H1861.58C1862.98 329 1869 339.22 1879.64 346.78C1890.28 354.34 1904.56 358.12 1922.48 358.12C1933.96 358.12 1945.16 357.14 1956.08 355.18C1967.28 352.94 1976.38 350.28 1983.38 347.2L1991.78 398.02C1988.42 399.7 1983.94 401.38 1978.34 403.06C1972.74 404.74 1966.44 406.14 1959.44 407.26C1952.72 408.66 1945.44 409.78 1937.6 410.62C1929.76 411.46 1921.92 411.88 1914.08 411.88C1894.2 411.88 1876.84 408.94 1862 403.06C1847.44 397.18 1835.26 389.2 1825.46 379.12C1815.94 368.76 1808.8 356.58 1804.04 342.58C1799.56 328.58 1797.32 313.46 1797.32 297.22ZM1944.32 273.28C1944.04 267.96 1943.06 262.78 1941.38 257.74C1939.98 252.7 1937.6 248.22 1934.24 244.3C1931.16 240.38 1927.1 237.16 1922.06 234.64C1917.3 232.12 1911.28 230.86 1904 230.86C1897 230.86 1890.98 232.12 1885.94 234.64C1880.9 236.88 1876.7 239.96 1873.34 243.88C1869.98 247.8 1867.32 252.42 1865.36 257.74C1863.68 262.78 1862.42 267.96 1861.58 273.28H1944.32ZM2186.23 240.52C2180.63 239.12 2174.05 237.72 2166.49 236.32C2158.93 234.64 2150.81 233.8 2142.13 233.8C2138.21 233.8 2133.45 234.22 2127.85 235.06C2122.53 235.62 2118.47 236.32 2115.67 237.16V406H2053.09V196.84C2064.29 192.92 2077.45 189.28 2092.57 185.92C2107.97 182.28 2125.05 180.46 2143.81 180.46C2147.17 180.46 2151.23 180.74 2155.99 181.3C2160.75 181.58 2165.51 182.14 2170.27 182.98C2175.03 183.54 2179.79 184.38 2184.55 185.5C2189.31 186.34 2193.37 187.46 2196.73 188.86L2186.23 240.52Z" fill="#0F9D58"/>
<path d="M559.54 573.26C559.54 552.14 551.767 541.58 536.22 541.58C532.847 541.58 529.473 542.02 526.1 542.9C522.873 543.78 520.233 544.88 518.18 546.2V605.82C519.793 606.113 521.847 606.407 524.34 606.7C526.833 606.847 529.547 606.92 532.48 606.92C541.427 606.92 548.173 603.84 552.72 597.68C557.267 591.52 559.54 583.38 559.54 573.26ZM592.98 574.14C592.98 583.38 591.587 591.74 588.8 599.22C586.16 606.7 582.273 613.08 577.14 618.36C572.007 623.64 565.7 627.747 558.22 630.68C550.74 633.467 542.233 634.86 532.7 634.86C528.74 634.86 524.56 634.64 520.16 634.2C515.907 633.907 511.653 633.467 507.4 632.88C503.293 632.293 499.333 631.633 495.52 630.9C491.707 630.02 488.333 629.14 485.4 628.26V466.56L518.18 461.28V518.92C521.847 517.307 525.66 516.06 529.62 515.18C533.58 514.3 537.833 513.86 542.38 513.86C550.593 513.86 557.853 515.327 564.16 518.26C570.467 521.047 575.747 525.08 580 530.36C584.253 535.64 587.48 542.02 589.68 549.5C591.88 556.833 592.98 565.047 592.98 574.14ZM717.906 516.28C711.306 538.573 704.412 559.473 697.226 578.98C690.039 598.487 682.192 617.407 673.686 635.74C670.606 642.34 667.526 647.913 664.446 652.46C661.366 657.153 657.992 660.967 654.326 663.9C650.659 666.98 646.479 669.18 641.786 670.5C637.239 671.967 631.886 672.7 625.726 672.7C620.592 672.7 615.826 672.187 611.426 671.16C607.172 670.28 603.652 669.253 600.866 668.08L606.586 641.9C609.959 643.073 612.966 643.88 615.606 644.32C618.246 644.76 621.032 644.98 623.966 644.98C629.832 644.98 634.306 643.367 637.386 640.14C640.612 637.06 643.326 632.733 645.526 627.16C638.046 612.493 630.566 596.067 623.086 577.88C615.606 559.547 608.566 539.013 601.966 516.28H636.726C638.192 522 639.879 528.233 641.786 534.98C643.839 541.58 645.966 548.327 648.166 555.22C650.366 561.967 652.566 568.567 654.766 575.02C657.112 581.473 659.312 587.34 661.366 592.62C663.272 587.34 665.252 581.473 667.306 575.02C669.359 568.567 671.339 561.967 673.246 555.22C675.299 548.327 677.206 541.58 678.966 534.98C680.872 528.233 682.559 522 684.026 516.28H717.906Z" fill="#737373"/>
<path d="M813.694 599.473C815.168 599.607 816.843 599.741 818.719 599.875C820.729 599.875 823.074 599.875 825.754 599.875C841.432 599.875 853.023 595.922 860.527 588.016C868.165 580.11 871.984 569.189 871.984 555.253C871.984 540.647 868.366 529.592 861.13 522.088C853.894 514.584 842.437 510.832 826.759 510.832C824.615 510.832 822.404 510.899 820.126 511.033C817.848 511.033 815.704 511.167 813.694 511.435V599.473ZM904.345 555.253C904.345 567.313 902.469 577.832 898.717 586.81C894.965 595.788 889.605 603.225 882.637 609.121C875.803 615.017 867.428 619.439 857.512 622.387C847.596 625.335 836.474 626.809 824.146 626.809C818.518 626.809 811.952 626.541 804.448 626.005C796.944 625.603 789.574 624.665 782.338 623.191V487.516C789.574 486.176 797.078 485.305 804.85 484.903C812.756 484.367 819.523 484.099 825.151 484.099C837.077 484.099 847.864 485.439 857.512 488.119C867.294 490.799 875.669 495.02 882.637 500.782C889.605 506.544 894.965 513.914 898.717 522.892C902.469 531.87 904.345 542.657 904.345 555.253ZM923.501 572.941C923.501 563.561 924.908 555.387 927.722 548.419C930.67 541.317 934.489 535.421 939.179 530.731C943.869 526.041 949.229 522.49 955.259 520.078C961.423 517.666 967.721 516.46 974.153 516.46C989.161 516.46 1001.02 521.083 1009.73 530.329C1018.44 539.441 1022.8 552.908 1022.8 570.73C1022.8 572.472 1022.73 574.415 1022.59 576.559C1022.46 578.569 1022.33 580.378 1022.19 581.986H954.254C954.924 588.15 957.805 593.041 962.897 596.659C967.989 600.277 974.823 602.086 983.399 602.086C988.893 602.086 994.253 601.617 999.479 600.679C1004.84 599.607 1009.19 598.334 1012.54 596.86L1016.56 621.181C1014.96 621.985 1012.81 622.789 1010.13 623.593C1007.45 624.397 1004.44 625.067 1001.09 625.603C997.871 626.273 994.387 626.809 990.635 627.211C986.883 627.613 983.131 627.814 979.379 627.814C969.865 627.814 961.557 626.407 954.455 623.593C947.487 620.779 941.658 616.96 936.968 612.136C932.412 607.178 928.995 601.349 926.717 594.649C924.573 587.949 923.501 580.713 923.501 572.941ZM993.851 561.484C993.717 558.938 993.248 556.459 992.444 554.047C991.774 551.635 990.635 549.491 989.027 547.615C987.553 545.739 985.61 544.198 983.198 542.992C980.92 541.786 978.039 541.183 974.555 541.183C971.205 541.183 968.324 541.786 965.912 542.992C963.5 544.064 961.49 545.538 959.882 547.414C958.274 549.29 957.001 551.501 956.063 554.047C955.259 556.459 954.656 558.938 954.254 561.484H993.851ZM1088.12 627.01C1079.41 626.876 1072.3 625.938 1066.81 624.196C1061.45 622.454 1057.16 620.042 1053.95 616.96C1050.86 613.744 1048.72 609.925 1047.51 605.503C1046.44 600.947 1045.91 595.855 1045.91 590.227V473.848L1075.86 469.024V584.197C1075.86 586.877 1076.06 589.289 1076.46 591.433C1076.86 593.577 1077.6 595.386 1078.67 596.86C1079.88 598.334 1081.55 599.54 1083.69 600.478C1085.84 601.416 1088.72 602.019 1092.34 602.287L1088.12 627.01ZM1139.45 625H1109.5V519.274H1139.45V625ZM1142.27 488.722C1142.27 494.216 1140.46 498.571 1136.84 501.787C1133.36 504.869 1129.2 506.41 1124.38 506.41C1119.55 506.41 1115.33 504.869 1111.72 501.787C1108.23 498.571 1106.49 494.216 1106.49 488.722C1106.49 483.228 1108.23 478.94 1111.72 475.858C1115.33 472.642 1119.55 471.034 1124.38 471.034C1129.2 471.034 1133.36 472.642 1136.84 475.858C1140.46 478.94 1142.27 483.228 1142.27 488.722ZM1197.96 603.493C1203.45 603.493 1207.34 602.957 1209.62 601.885C1211.89 600.813 1213.03 598.736 1213.03 595.654C1213.03 593.242 1211.56 591.165 1208.61 589.423C1205.66 587.547 1201.17 585.47 1195.14 583.192C1190.45 581.45 1186.17 579.641 1182.28 577.765C1178.53 575.889 1175.31 573.678 1172.63 571.132C1169.95 568.452 1167.87 565.303 1166.4 561.685C1164.93 558.067 1164.19 553.712 1164.19 548.62C1164.19 538.704 1167.87 530.865 1175.24 525.103C1182.61 519.341 1192.73 516.46 1205.6 516.46C1212.03 516.46 1218.19 517.063 1224.09 518.269C1229.98 519.341 1234.67 520.547 1238.16 521.887L1232.93 545.203C1229.45 543.997 1225.63 542.925 1221.47 541.987C1217.45 541.049 1212.9 540.58 1207.81 540.58C1198.43 540.58 1193.74 543.193 1193.74 548.419C1193.74 549.625 1193.94 550.697 1194.34 551.635C1194.74 552.573 1195.55 553.511 1196.75 554.449C1197.96 555.253 1199.57 556.191 1201.58 557.263C1203.72 558.201 1206.4 559.273 1209.62 560.479C1216.18 562.891 1221.61 565.303 1225.9 567.715C1230.18 569.993 1233.53 572.539 1235.95 575.353C1238.49 578.033 1240.23 581.048 1241.17 584.398C1242.24 587.748 1242.78 591.634 1242.78 596.056C1242.78 606.508 1238.83 614.414 1230.92 619.774C1223.15 625.134 1212.09 627.814 1197.76 627.814C1188.38 627.814 1180.54 627.01 1174.24 625.402C1168.08 623.794 1163.79 622.454 1161.38 621.382L1166.4 597.061C1171.49 599.071 1176.72 600.679 1182.08 601.885C1187.44 602.957 1192.73 603.493 1197.96 603.493ZM1265.16 625V473.848L1295.11 469.024V519.676C1297.12 519.006 1299.67 518.403 1302.75 517.867C1305.96 517.197 1309.05 516.862 1311.99 516.862C1320.57 516.862 1327.67 518.068 1333.3 520.48C1339.06 522.758 1343.62 526.041 1346.97 530.329C1350.45 534.617 1352.86 539.709 1354.2 545.605C1355.68 551.501 1356.42 558.067 1356.42 565.303V625H1326.47V568.921C1326.47 559.273 1325.19 552.439 1322.65 548.419C1320.24 544.399 1315.68 542.389 1308.98 542.389C1306.3 542.389 1303.75 542.657 1301.34 543.193C1299.06 543.595 1296.99 544.064 1295.11 544.6V625H1265.16ZM1480.25 626.809C1472.61 626.809 1464.98 626.541 1457.34 626.005C1449.83 625.603 1442 624.531 1433.82 622.789V487.717C1440.25 486.511 1447.29 485.64 1454.93 485.104C1462.56 484.434 1469.67 484.099 1476.23 484.099C1485.08 484.099 1493.18 484.769 1500.55 486.109C1508.06 487.315 1514.49 489.459 1519.85 492.541C1525.21 495.623 1529.36 499.71 1532.31 504.802C1535.39 509.76 1536.93 515.924 1536.93 523.294C1536.93 534.416 1531.57 543.193 1520.85 549.625C1529.7 552.975 1535.73 557.531 1538.94 563.293C1542.16 569.055 1543.77 575.554 1543.77 582.79C1543.77 597.396 1538.41 608.384 1527.69 615.754C1517.1 623.124 1501.29 626.809 1480.25 626.809ZM1464.37 564.298V600.277C1466.65 600.545 1469.13 600.746 1471.81 600.88C1474.49 601.014 1477.44 601.081 1480.65 601.081C1490.03 601.081 1497.61 599.741 1503.37 597.061C1509.13 594.381 1512.01 589.423 1512.01 582.187C1512.01 575.755 1509.6 571.199 1504.77 568.519C1499.95 565.705 1493.05 564.298 1484.07 564.298H1464.37ZM1464.37 540.379H1479.65C1489.3 540.379 1496.2 539.173 1500.35 536.761C1504.51 534.215 1506.58 530.195 1506.58 524.701C1506.58 519.073 1504.44 515.12 1500.15 512.842C1495.86 510.564 1489.57 509.425 1481.26 509.425C1478.58 509.425 1475.7 509.492 1472.61 509.626C1469.53 509.626 1466.79 509.76 1464.37 510.028V540.379ZM1665.75 571.936C1665.75 580.244 1664.54 587.882 1662.13 594.85C1659.72 601.684 1656.24 607.58 1651.68 612.538C1647.12 617.362 1641.63 621.114 1635.2 623.794C1628.9 626.474 1621.8 627.814 1613.89 627.814C1606.12 627.814 1599.02 626.474 1592.59 623.794C1586.29 621.114 1580.86 617.362 1576.31 612.538C1571.75 607.58 1568.2 601.684 1565.65 594.85C1563.11 587.882 1561.83 580.244 1561.83 571.936C1561.83 563.628 1563.11 556.057 1565.65 549.223C1568.33 542.389 1571.95 536.56 1576.51 531.736C1581.2 526.912 1586.69 523.16 1592.99 520.48C1599.42 517.8 1606.39 516.46 1613.89 516.46C1621.53 516.46 1628.5 517.8 1634.8 520.48C1641.23 523.16 1646.72 526.912 1651.28 531.736C1655.83 536.56 1659.39 542.389 1661.93 549.223C1664.48 556.057 1665.75 563.628 1665.75 571.936ZM1635.2 571.936C1635.2 562.69 1633.32 555.454 1629.57 550.228C1625.95 544.868 1620.73 542.188 1613.89 542.188C1607.06 542.188 1601.77 544.868 1598.01 550.228C1594.26 555.454 1592.39 562.69 1592.39 571.936C1592.39 581.182 1594.26 588.552 1598.01 594.046C1601.77 599.406 1607.06 602.086 1613.89 602.086C1620.73 602.086 1625.95 599.406 1629.57 594.046C1633.32 588.552 1635.2 581.182 1635.2 571.936ZM1750.91 564.298C1748.23 574.482 1745.35 584.599 1742.27 594.649C1739.32 604.699 1736.17 614.816 1732.82 625H1709.51C1707.1 619.372 1704.48 612.672 1701.67 604.9C1698.86 597.128 1695.91 588.686 1692.83 579.574C1689.88 570.328 1686.8 560.613 1683.58 550.429C1680.5 540.111 1677.48 529.726 1674.53 519.274H1706.09C1707.16 524.098 1708.3 529.391 1709.51 535.153C1710.85 540.781 1712.19 546.61 1713.53 552.64C1715 558.67 1716.48 564.767 1717.95 570.931C1719.56 576.961 1721.17 582.79 1722.77 588.418C1724.52 582.522 1726.19 576.492 1727.8 570.328C1729.54 564.164 1731.15 558.134 1732.62 552.238C1734.23 546.208 1735.71 540.446 1737.05 534.952C1738.52 529.324 1739.79 524.098 1740.86 519.274H1762.57C1763.64 524.098 1764.85 529.324 1766.19 534.952C1767.53 540.446 1768.94 546.208 1770.41 552.238C1771.89 558.134 1773.43 564.164 1775.03 570.328C1776.64 576.492 1778.32 582.522 1780.06 588.418C1781.67 582.79 1783.28 576.961 1784.88 570.931C1786.49 564.767 1787.97 558.67 1789.31 552.64C1790.78 546.61 1792.12 540.781 1793.33 535.153C1794.67 529.391 1795.87 524.098 1796.94 519.274H1828.1C1825.15 529.726 1822.07 540.111 1818.85 550.429C1815.77 560.613 1812.69 570.328 1809.61 579.574C1806.66 588.686 1803.71 597.128 1800.76 604.9C1797.95 612.672 1795.34 619.372 1792.92 625H1769.61C1766.26 614.816 1762.97 604.699 1759.76 594.649C1756.54 584.599 1753.59 574.482 1750.91 564.298ZM1886.42 627.01C1877.71 626.876 1870.61 625.938 1865.12 624.196C1859.76 622.454 1855.47 620.042 1852.25 616.96C1849.17 613.744 1847.03 609.925 1845.82 605.503C1844.75 600.947 1844.21 595.855 1844.21 590.227V473.848L1874.16 469.024V584.197C1874.16 586.877 1874.36 589.289 1874.77 591.433C1875.17 593.577 1875.91 595.386 1876.98 596.86C1878.18 598.334 1879.86 599.54 1882 600.478C1884.15 601.416 1887.03 602.019 1890.65 602.287L1886.42 627.01Z" fill="#404040"/>
</svg>
