<svg width="800" height="800" viewBox="0 0 800 800" fill="none" xmlns="http://www.w3.org/2000/svg">
<path d="M571.529 176.213C572.592 207.253 541.438 253.173 528.182 273.254L528.126 273.31C525.049 268.389 519.121 264.361 509.836 262.571C516.044 249.315 527.51 210.387 531.035 194.278C495.07 157.139 400.433 142.429 393.609 153.168C392.211 155.293 390.924 157.475 389.638 159.656C347.521 139.576 349.254 62.7262 368.44 51.8158C376.942 46.9502 387.512 49.243 397.468 59.2542C397.916 52.1518 405.075 39.0638 416.486 38.1118C429.35 36.9918 440.033 46.9502 447.366 63.2318C445.856 50.5918 457.211 33.7566 475.444 38.4542C487.246 41.475 501.732 74.419 518.12 93.715C534.56 113.176 570.523 148.582 571.529 176.213Z" fill="#29263B"/>
<path d="M446.856 136.161C446.272 136.16 445.702 135.977 445.227 135.636C444.752 135.296 444.395 134.815 444.208 134.261C439.843 121.412 440.587 101.497 443.777 90.4215C443.88 90.0685 444.049 89.7389 444.278 89.4517C444.507 89.1645 444.79 88.9253 445.112 88.7475C445.433 88.5698 445.787 88.4573 446.152 88.416C446.517 88.3749 446.886 88.4061 447.24 88.5079C447.593 88.6095 447.923 88.7797 448.209 89.0088C448.497 89.2378 448.736 89.5211 448.913 89.8427C449.091 90.1642 449.205 90.5176 449.245 90.8826C449.286 91.2477 449.256 91.6173 449.153 91.9702C446.182 102.284 445.616 121.018 449.504 132.469C449.646 132.89 449.686 133.339 449.621 133.779C449.557 134.218 449.387 134.636 449.128 134.997C448.869 135.359 448.528 135.653 448.133 135.856C447.737 136.06 447.301 136.166 446.856 136.167V136.161Z" fill="#686674"/>
<path d="M419.451 135.943C418.902 135.943 418.366 135.782 417.908 135.479C417.449 135.176 417.091 134.746 416.876 134.241C410.51 119.499 408.238 103.312 410.304 87.3878C410.409 86.6534 410.803 85.9913 411.398 85.5471C411.992 85.1028 412.739 84.9129 413.473 85.019C414.206 85.1251 414.868 85.5185 415.313 86.1127C415.758 86.707 415.947 87.4534 415.841 88.1878C413.918 103.101 416.054 118.256 422.024 132.057C422.204 132.482 422.276 132.945 422.235 133.406C422.193 133.866 422.038 134.308 421.782 134.694C421.528 135.079 421.182 135.396 420.774 135.615C420.368 135.834 419.913 135.949 419.451 135.949V135.943Z" fill="#686674"/>
<path d="M396.64 136.949C396.195 136.95 395.757 136.844 395.36 136.641C394.965 136.438 394.622 136.143 394.363 135.781C385.345 123.204 381.03 107.764 381.536 89.8868C381.541 89.5174 381.619 89.1524 381.768 88.814C381.917 88.4756 382.131 88.1703 382.4 87.9167C382.669 87.663 382.985 87.4659 383.331 87.3369C383.678 87.2081 384.046 87.1503 384.416 87.1668C384.784 87.1764 385.147 87.2585 385.483 87.4086C385.819 87.5587 386.121 87.7737 386.374 88.0414C386.627 88.3091 386.825 88.6239 386.955 88.9681C387.086 89.3123 387.147 89.679 387.136 90.0468C386.656 106.908 390.513 120.804 398.918 132.525C399.217 132.943 399.395 133.435 399.433 133.948C399.472 134.46 399.368 134.973 399.133 135.43C398.899 135.888 398.544 136.272 398.105 136.54C397.667 136.809 397.163 136.951 396.649 136.952L396.64 136.949Z" fill="#686674"/>
<path d="M389.639 159.657C363.743 203.676 356.583 254.629 360.386 276.834C365.475 306.647 392.989 325.298 419.45 325.298C419.954 337.548 419.004 357.769 419.004 357.769C419.004 357.769 404.963 360.621 387.68 365.543C382.144 467.732 499.322 474.778 537.804 374.663C522.999 367.901 507.658 362.381 491.938 358.164C491.938 358.164 490.764 318.228 495.183 298.372C521.359 311.46 537.97 288.417 528.127 273.314C525.05 268.393 519.122 264.365 509.837 262.575C516.045 249.319 527.511 210.391 531.036 194.282C495.071 157.143 400.434 142.433 393.61 153.172C392.211 155.293 390.925 157.476 389.639 159.657Z" fill="#FFA775"/>
<path d="M504.522 290.594C504.26 290.594 504.004 290.52 503.781 290.381C503.559 290.242 503.38 290.043 503.266 289.808C503.151 289.573 503.105 289.309 503.133 289.048C503.161 288.787 503.261 288.541 503.423 288.335C508.46 281.885 514.409 278.671 521.607 278.512C521.793 278.501 521.978 278.528 522.153 278.591C522.327 278.655 522.485 278.754 522.62 278.883C522.754 279.011 522.861 279.165 522.932 279.338C523.004 279.509 523.039 279.693 523.036 279.879C523.041 280.063 523.009 280.245 522.941 280.416C522.876 280.587 522.775 280.744 522.649 280.877C522.522 281.008 522.37 281.115 522.202 281.189C522.034 281.263 521.853 281.304 521.669 281.307C515.269 281.45 510.176 284.229 505.626 290.056C505.495 290.224 505.328 290.36 505.136 290.453C504.944 290.546 504.735 290.594 504.522 290.594Z" fill="#29263B"/>
<path d="M392.398 188.972C389.147 188.94 385.947 188.148 383.056 186.658C382.639 186.477 382.261 186.212 381.949 185.881C381.635 185.549 381.394 185.157 381.237 184.729C381.08 184.301 381.013 183.845 381.039 183.391C381.064 182.935 381.181 182.49 381.384 182.082C381.586 181.674 381.871 181.311 382.218 181.015C382.565 180.721 382.968 180.498 383.403 180.365C383.84 180.231 384.298 180.186 384.75 180.234C385.205 180.284 385.643 180.423 386.04 180.647C392.501 183.847 398.736 182.247 405.658 175.585C405.97 175.252 406.346 174.988 406.763 174.805C407.181 174.623 407.631 174.529 408.087 174.525C408.543 174.522 408.994 174.613 409.413 174.789C409.832 174.967 410.211 175.228 410.528 175.556C410.843 175.884 411.09 176.273 411.25 176.7C411.411 177.125 411.483 177.58 411.463 178.036C411.443 178.49 411.33 178.937 411.131 179.346C410.935 179.757 410.655 180.122 410.311 180.421C404.394 186.116 398.4 188.972 392.398 188.972Z" fill="#29263B"/>
<path d="M486.677 203.732C485.87 203.73 485.091 203.437 484.481 202.909C483.872 202.38 483.473 201.65 483.358 200.852C483.073 198.228 482.177 195.708 480.744 193.492C479.31 191.277 477.377 189.428 475.101 188.093C473.129 187.069 470.936 186.543 468.715 186.56C466.493 186.578 464.309 187.14 462.353 188.194C461.557 188.54 460.659 188.564 459.845 188.261C459.032 187.959 458.366 187.352 457.99 186.572C457.613 185.789 457.553 184.892 457.822 184.068C458.093 183.242 458.67 182.554 459.437 182.146C462.345 180.634 465.576 179.847 468.854 179.852C472.133 179.856 475.36 180.653 478.264 182.175C481.472 184.007 484.206 186.567 486.245 189.647C488.285 192.728 489.571 196.245 490.005 199.914C490.128 200.796 489.897 201.69 489.361 202.4C488.827 203.112 488.032 203.583 487.15 203.708C486.993 203.725 486.835 203.733 486.677 203.732Z" fill="#29263B"/>
<path d="M420.064 289.307C419.731 289.307 419.411 289.189 419.158 288.973C418.905 288.757 418.737 288.459 418.684 288.131C418.264 286.095 418.584 283.973 419.588 282.151C420.595 280.33 422.217 278.927 424.166 278.197C429.675 275.983 438.246 278.09 443.98 286.387C444.192 286.693 444.272 287.069 444.204 287.434C444.139 287.799 443.929 288.122 443.624 288.333C443.318 288.544 442.942 288.624 442.577 288.557C442.212 288.491 441.889 288.282 441.678 287.976C436.784 280.883 429.678 278.997 425.206 280.792C423.843 281.28 422.707 282.251 422.012 283.523C421.32 284.795 421.118 286.277 421.446 287.687C421.504 288.053 421.414 288.426 421.196 288.725C420.98 289.026 420.652 289.227 420.288 289.287C420.214 289.299 420.139 289.306 420.064 289.307Z" fill="#29263B"/>
<path d="M408.432 257.651C408.277 257.651 408.123 257.625 407.977 257.575C406.358 257.02 392.11 251.966 390.998 245.238C389.854 238.311 407.566 202.94 412.619 196.079C412.838 195.78 413.168 195.582 413.534 195.526C413.902 195.47 414.275 195.563 414.574 195.782C414.874 196.001 415.072 196.331 415.128 196.699C415.184 197.065 415.091 197.438 414.872 197.737C409.146 205.513 392.889 239.519 393.752 244.777C394.392 248.617 403.365 253.036 408.878 254.924C409.19 255.033 409.454 255.247 409.624 255.531C409.792 255.815 409.854 256.15 409.8 256.476C409.747 256.801 409.579 257.097 409.326 257.311C409.075 257.526 408.755 257.643 408.426 257.644L408.432 257.651Z" fill="#29263B"/>
<path d="M615.213 766.677C552.512 785.077 391.261 793.189 327.554 768.746L325.154 539.66L253.684 510.901C253.684 510.901 292.936 415.602 334.885 387.021C347.861 378.129 369.564 370.689 387.685 365.543C382.149 467.732 499.327 474.778 537.808 374.663C559.229 384.396 584.119 398.77 602.8 418.57C643.57 461.746 615.213 766.677 615.213 766.677Z" fill="#29263B"/>
<path fill-rule="evenodd" clip-rule="evenodd" d="M465.823 209.359C469.207 210.22 470.532 216.495 468.782 223.359C467.031 230.223 462.862 235.087 459.479 234.226C456.097 233.365 454.764 227.088 456.516 220.226C458.268 213.364 462.436 208.496 465.823 209.359Z" fill="#29263B"/>
<path fill-rule="evenodd" clip-rule="evenodd" d="M394.257 193.182C397.648 194.049 398.973 200.318 397.222 207.182C395.472 214.046 391.302 218.916 387.915 218.049C384.528 217.182 383.206 210.912 384.957 204.056C386.707 197.2 390.877 192.32 394.257 193.176V193.182Z" fill="#29263B"/>
<path fill-rule="evenodd" clip-rule="evenodd" d="M592.089 508.583C592.089 508.583 579.46 473.383 559.532 469.425C539.02 465.343 510.951 482.682 489.132 499.874C471.159 460.761 451.314 409.18 451.092 390.359C462.726 362.93 450.873 340.031 479.812 313.698C493.214 301.505 473.873 283.422 455.774 303.983C442.025 319.604 419.294 319.274 406.833 316.713C382.004 311.623 368.273 293.618 363.094 286.482C346.494 288.316 350.033 306.449 353.988 314.33C346.057 316.641 342.433 330.78 347.657 339.5C341.308 344.215 338.466 351.106 346.095 364.479C339.966 370.487 342.303 382.478 349.026 388.378C349.026 388.378 368.743 401.966 382.146 407.766C388.079 452.097 397.223 495.94 409.506 538.946C370.786 545.698 325.426 550.767 325.426 550.767L325.247 539.855L258.559 512.862C241.279 553.681 232.404 631.834 271.242 648.19C305.454 662.59 368.362 653.558 437.017 612.51C453.961 646.74 474.978 671.23 500.358 671.255C541.708 671.305 568.814 631.662 568.814 631.662C576.353 609.127 572.814 586.862 558.143 570.241C558.108 570.089 558.094 569.921 558.046 569.783C566.474 572.764 578.814 564.503 575.407 555.638C582.767 557.697 589.055 547.98 588.222 533.558C593.679 528.089 594.969 519.764 592.089 508.583Z" fill="#FFA775"/>
<path d="M558.462 570.652C558.104 570.652 557.76 570.514 557.501 570.268C557.242 570.021 557.086 569.685 557.067 569.328C556.443 557.768 551.787 546.813 542.413 534.85C542.197 534.557 542.104 534.192 542.154 533.832C542.203 533.472 542.39 533.144 542.677 532.92C542.962 532.696 543.325 532.592 543.686 532.631C544.048 532.669 544.379 532.847 544.613 533.125C554.36 545.562 559.203 557.018 559.861 569.178C559.88 569.548 559.752 569.911 559.504 570.188C559.256 570.463 558.909 570.629 558.539 570.65L558.462 570.652Z" fill="#29263B"/>
<path d="M575.767 555.918C575.437 555.918 575.119 555.801 574.867 555.588C574.616 555.376 574.447 555.083 574.391 554.758C571.824 539.036 564.037 524.636 552.287 513.879C552.016 513.625 551.859 513.273 551.848 512.902C551.837 512.532 551.975 512.172 552.229 511.902C552.484 511.632 552.835 511.475 553.207 511.464C553.576 511.452 553.936 511.59 554.207 511.844C566.343 523.06 574.413 537.987 577.149 554.283C577.211 554.648 577.127 555.023 576.912 555.327C576.7 555.63 576.373 555.835 576.008 555.899C575.928 555.912 575.848 555.918 575.767 555.918Z" fill="#29263B"/>
<path d="M588.567 534.995C588.252 534.995 587.946 534.888 587.7 534.693C587.454 534.498 587.279 534.225 587.207 533.918C583.151 516.813 575.039 502.771 563.098 492.19C562.961 492.069 562.849 491.921 562.769 491.757C562.689 491.592 562.641 491.413 562.63 491.229C562.607 490.859 562.732 490.494 562.978 490.217C563.225 489.941 563.57 489.771 563.94 489.749C564.31 489.726 564.674 489.851 564.951 490.097C577.334 501.069 585.737 515.595 589.929 533.275C590.013 533.637 589.951 534.016 589.758 534.331C589.562 534.646 589.25 534.872 588.89 534.958C588.785 534.982 588.676 534.995 588.567 534.995Z" fill="#29263B"/>
<path d="M524.554 566.41C524.304 566.41 524.059 566.345 523.845 566.218C523.631 566.093 523.453 565.913 523.331 565.695L512.891 547.01C498.07 529.697 450.034 419.103 449.691 390.37C449.69 390.177 449.726 389.986 449.802 389.809C453.939 380.049 455.066 370.769 456.155 361.78C458.149 345.335 460.032 329.802 478.875 312.66C482.114 309.711 483.485 306.121 482.634 302.805C482.16 301.197 481.258 299.749 480.024 298.617C478.789 297.482 477.269 296.706 475.627 296.372C469.707 294.957 462.846 298.061 456.826 304.901C443.909 319.578 422.387 321.333 406.554 318.077C389.195 314.521 374.194 304.157 361.965 287.298C361.85 287.149 361.765 286.98 361.717 286.799C361.669 286.618 361.658 286.429 361.683 286.242C361.71 286.057 361.774 285.879 361.87 285.717C361.968 285.557 362.096 285.418 362.248 285.308C362.398 285.197 362.571 285.119 362.754 285.077C362.938 285.034 363.126 285.029 363.31 285.063C363.496 285.095 363.672 285.164 363.83 285.266C363.987 285.369 364.122 285.501 364.227 285.657C368.629 291.725 382.021 310.194 407.115 315.338C412.32 316.409 439.075 320.839 454.725 303.055C461.454 295.409 469.315 291.981 476.279 293.653C478.416 294.105 480.389 295.13 481.986 296.621C483.582 298.111 484.743 300.009 485.341 302.109C486.461 306.461 484.789 311.06 480.757 314.727C462.686 331.17 460.864 346.202 458.936 362.116C457.834 371.21 456.696 380.609 452.498 390.626C453.149 419.511 500.6 528.57 515.102 545.281C515.163 545.353 515.216 545.431 515.262 545.514L525.771 564.322C525.89 564.535 525.95 564.775 525.949 565.018C525.946 565.261 525.88 565.5 525.757 565.711C525.634 565.921 525.458 566.095 525.248 566.217C525.037 566.337 524.797 566.402 524.554 566.402V566.41Z" fill="#29263B"/>
</svg>
