<svg width="426" height="426" viewBox="0 0 426 426" fill="none" xmlns="http://www.w3.org/2000/svg">
<rect width="426" height="426" rx="17" fill="#FBFBFB"/>
<path d="M102 210.429C102 204.075 107.147 198.925 113.497 198.925H311.503C317.853 198.925 323 204.075 323 210.429V247.496C323 253.85 317.853 259 311.503 259H113.497C107.147 259 102 253.85 102 247.496V210.429Z" fill="#B4A2FF"/>
<path d="M315.335 135.015C315.335 160.428 294.746 181.03 269.347 181.03C243.948 181.03 223.358 160.428 223.358 135.015C223.358 109.602 243.948 89 269.347 89C294.746 89 315.335 109.602 315.335 135.015Z" fill="#A0DDFF"/>
<path d="M150.293 92.8346C153.243 87.7218 160.618 87.7218 163.568 92.8346L205.608 165.692C208.558 170.805 204.871 177.195 198.97 177.195H114.891C108.991 177.195 105.303 170.805 108.253 165.692L150.293 92.8346Z" fill="#FFE485"/>
<path d="M109.678 320.2C107.512 320.2 105.478 319.883 103.578 319.25C101.712 318.617 100.262 317.817 99.2283 316.85L100.378 314.85C101.378 315.717 102.712 316.467 104.378 317.1C106.045 317.7 107.845 318 109.778 318C112.512 318 114.478 317.55 115.678 316.65C116.878 315.75 117.478 314.567 117.478 313.1C117.478 312.033 117.162 311.2 116.528 310.6C115.928 309.967 115.112 309.483 114.078 309.15C113.045 308.817 111.912 308.55 110.678 308.35C109.445 308.117 108.212 307.867 106.978 307.6C105.745 307.333 104.612 306.95 103.578 306.45C102.545 305.95 101.712 305.267 101.078 304.4C100.478 303.5 100.178 302.317 100.178 300.85C100.178 299.517 100.545 298.317 101.278 297.25C102.012 296.183 103.112 295.333 104.578 294.7C106.045 294.033 107.878 293.7 110.078 293.7C111.712 293.7 113.345 293.933 114.978 294.4C116.645 294.867 117.995 295.483 119.028 296.25L117.878 298.25C116.778 297.417 115.545 296.817 114.178 296.45C112.812 296.083 111.428 295.9 110.028 295.9C107.495 295.9 105.628 296.367 104.428 297.3C103.262 298.233 102.678 299.4 102.678 300.8C102.678 301.9 102.978 302.783 103.578 303.45C104.212 304.083 105.045 304.583 106.078 304.95C107.112 305.283 108.245 305.567 109.478 305.8C110.712 306 111.945 306.233 113.178 306.5C114.412 306.767 115.545 307.15 116.578 307.65C117.612 308.117 118.428 308.783 119.028 309.65C119.662 310.483 119.978 311.617 119.978 313.05C119.978 314.483 119.578 315.733 118.778 316.8C118.012 317.867 116.862 318.7 115.328 319.3C113.795 319.9 111.912 320.2 109.678 320.2ZM137.555 320.2C134.922 320.2 132.589 319.633 130.555 318.5C128.555 317.367 126.972 315.8 125.805 313.8C124.672 311.8 124.105 309.517 124.105 306.95C124.105 304.35 124.639 302.067 125.705 300.1C126.805 298.1 128.305 296.533 130.205 295.4C132.105 294.267 134.239 293.7 136.605 293.7C138.972 293.7 141.089 294.25 142.955 295.35C144.855 296.45 146.339 298 147.405 300C148.505 301.967 149.055 304.25 149.055 306.85C149.055 306.95 149.039 307.067 149.005 307.2C149.005 307.3 149.005 307.417 149.005 307.55H125.955V305.6H147.655L146.655 306.55C146.689 304.517 146.255 302.7 145.355 301.1C144.489 299.467 143.305 298.2 141.805 297.3C140.305 296.367 138.572 295.9 136.605 295.9C134.672 295.9 132.939 296.367 131.405 297.3C129.905 298.2 128.722 299.467 127.855 301.1C126.989 302.7 126.555 304.533 126.555 306.6V307.05C126.555 309.183 127.022 311.083 127.955 312.75C128.922 314.383 130.239 315.667 131.905 316.6C133.572 317.5 135.472 317.95 137.605 317.95C139.272 317.95 140.822 317.65 142.255 317.05C143.722 316.45 144.955 315.533 145.955 314.3L147.405 315.95C146.272 317.35 144.839 318.417 143.105 319.15C141.405 319.85 139.555 320.2 137.555 320.2ZM167.389 320.2C164.756 320.2 162.423 319.633 160.389 318.5C158.389 317.367 156.806 315.8 155.639 313.8C154.506 311.8 153.939 309.517 153.939 306.95C153.939 304.35 154.473 302.067 155.539 300.1C156.639 298.1 158.139 296.533 160.039 295.4C161.939 294.267 164.073 293.7 166.439 293.7C168.806 293.7 170.923 294.25 172.789 295.35C174.689 296.45 176.173 298 177.239 300C178.339 301.967 178.889 304.25 178.889 306.85C178.889 306.95 178.873 307.067 178.839 307.2C178.839 307.3 178.839 307.417 178.839 307.55H155.789V305.6H177.489L176.489 306.55C176.523 304.517 176.089 302.7 175.189 301.1C174.323 299.467 173.139 298.2 171.639 297.3C170.139 296.367 168.406 295.9 166.439 295.9C164.506 295.9 162.773 296.367 161.239 297.3C159.739 298.2 158.556 299.467 157.689 301.1C156.823 302.7 156.389 304.533 156.389 306.6V307.05C156.389 309.183 156.856 311.083 157.789 312.75C158.756 314.383 160.073 315.667 161.739 316.6C163.406 317.5 165.306 317.95 167.439 317.95C169.106 317.95 170.656 317.65 172.089 317.05C173.556 316.45 174.789 315.533 175.789 314.3L177.239 315.95C176.106 317.35 174.673 318.417 172.939 319.15C171.239 319.85 169.389 320.2 167.389 320.2ZM231.965 293.7C234.065 293.7 235.882 294.117 237.415 294.95C238.982 295.75 240.198 296.983 241.065 298.65C241.932 300.283 242.365 302.317 242.365 304.75V320H239.865V304.95C239.865 302.017 239.148 299.783 237.715 298.25C236.282 296.717 234.282 295.95 231.715 295.95C229.748 295.95 228.048 296.367 226.615 297.2C225.182 298.033 224.082 299.2 223.315 300.7C222.548 302.2 222.165 304 222.165 306.1V320H219.665V304.95C219.665 302.017 218.948 299.783 217.515 298.25C216.082 296.717 214.082 295.95 211.515 295.95C209.548 295.95 207.848 296.367 206.415 297.2C204.982 298.033 203.882 299.2 203.115 300.7C202.348 302.2 201.965 304 201.965 306.1V320H199.465V293.9H201.865V301.1L201.515 300.3C202.282 298.267 203.565 296.667 205.365 295.5C207.165 294.3 209.332 293.7 211.865 293.7C214.465 293.7 216.648 294.367 218.415 295.7C220.215 297 221.348 298.95 221.815 301.55L220.965 301.2C221.665 298.967 222.982 297.167 224.915 295.8C226.848 294.4 229.198 293.7 231.965 293.7ZM262.888 320.2C260.388 320.2 258.154 319.633 256.188 318.5C254.254 317.367 252.704 315.8 251.538 313.8C250.404 311.8 249.838 309.517 249.838 306.95C249.838 304.35 250.404 302.067 251.538 300.1C252.704 298.1 254.254 296.533 256.188 295.4C258.154 294.267 260.388 293.7 262.888 293.7C265.388 293.7 267.621 294.267 269.588 295.4C271.554 296.533 273.104 298.1 274.238 300.1C275.371 302.067 275.938 304.35 275.938 306.95C275.938 309.517 275.371 311.8 274.238 313.8C273.104 315.8 271.554 317.367 269.588 318.5C267.621 319.633 265.388 320.2 262.888 320.2ZM262.888 317.95C264.888 317.95 266.688 317.5 268.288 316.6C269.888 315.667 271.138 314.367 272.038 312.7C272.938 311.033 273.388 309.117 273.388 306.95C273.388 304.75 272.938 302.833 272.038 301.2C271.138 299.533 269.888 298.25 268.288 297.35C266.688 296.417 264.888 295.95 262.888 295.95C260.888 295.95 259.088 296.417 257.488 297.35C255.921 298.25 254.671 299.533 253.738 301.2C252.838 302.833 252.388 304.75 252.388 306.95C252.388 309.117 252.838 311.033 253.738 312.7C254.671 314.367 255.921 315.667 257.488 316.6C259.088 317.5 260.888 317.95 262.888 317.95ZM283.694 320V293.9H286.094V301.05L285.844 300.25C286.577 298.15 287.81 296.533 289.544 295.4C291.277 294.267 293.444 293.7 296.044 293.7V296.15C295.944 296.15 295.844 296.15 295.744 296.15C295.644 296.117 295.544 296.1 295.444 296.1C292.544 296.1 290.277 297.017 288.644 298.85C287.01 300.65 286.194 303.167 286.194 306.4V320H283.694ZM313.288 320.2C310.654 320.2 308.321 319.633 306.288 318.5C304.288 317.367 302.704 315.8 301.538 313.8C300.404 311.8 299.838 309.517 299.838 306.95C299.838 304.35 300.371 302.067 301.438 300.1C302.538 298.1 304.038 296.533 305.938 295.4C307.838 294.267 309.971 293.7 312.338 293.7C314.704 293.7 316.821 294.25 318.688 295.35C320.588 296.45 322.071 298 323.138 300C324.238 301.967 324.788 304.25 324.788 306.85C324.788 306.95 324.771 307.067 324.738 307.2C324.738 307.3 324.738 307.417 324.738 307.55H301.688V305.6H323.388L322.388 306.55C322.421 304.517 321.988 302.7 321.088 301.1C320.221 299.467 319.038 298.2 317.538 297.3C316.038 296.367 314.304 295.9 312.338 295.9C310.404 295.9 308.671 296.367 307.138 297.3C305.638 298.2 304.454 299.467 303.588 301.1C302.721 302.7 302.288 304.533 302.288 306.6V307.05C302.288 309.183 302.754 311.083 303.688 312.75C304.654 314.383 305.971 315.667 307.638 316.6C309.304 317.5 311.204 317.95 313.338 317.95C315.004 317.95 316.554 317.65 317.988 317.05C319.454 316.45 320.688 315.533 321.688 314.3L323.138 315.95C322.004 317.35 320.571 318.417 318.838 319.15C317.138 319.85 315.288 320.2 313.288 320.2Z" fill="black"/>
</svg>
