<svg version="1.1" xmlns="http://www.w3.org/2000/svg" viewBox="0 0 70 70"><defs><path id="facebook" d="M27.6,70V38.2H16.9v-13h10.7V12.1c0,0,1-9.2,11.1-11.7C48.4,0,53.1,0,53.1,0v11.7h-8c0,0-4.5,0.3-4.5,3.9 s0,9.7,0,9.7h12.3l-1.7,13H40.6V70H27.6z"></path><path id="youtube" d="M68.6,18c-0.8-3-3.2-5.4-6.2-6.2C56.9,10.3,35,10.3,35,10.3s-21.9,0-27.4,1.4C4.7,12.6,2.2,15,1.4,18 C0,23.5,0,34.9,0,34.9s0,11.4,1.4,16.8c0.8,3,3.2,5.4,6.2,6.2c5.5,1.5,27.4,1.5,27.4,1.5s21.9,0,27.4-1.4c3-0.8,5.4-3.2,6.2-6.2 C70,46.3,70,34.9,70,34.9S70.1,23.5,68.6,18z M28,45.3v-21l18.2,10.5L28,45.3z"></path><g id="twitter"><g><path d="M70,13.1c-2.6,1.1-5.4,1.9-8.3,2.3c3-1.8,5.2-4.6,6.3-7.9c-2.8,1.7-5.8,2.8-9.1,3.5c-2.6-2.8-6.4-4.5-10.5-4.5 c-7.9,0-14.3,6.4-14.3,14.4c0,1.1,0.1,2.2,0.3,3.3C22.5,23.4,12,17.7,4.9,9c-1.2,2.1-2,4.6-2,7.3c0,5,2.6,9.4,6.4,11.9 c-2.3,0-4.6-0.7-6.5-1.8c0,0,0,0.1,0,0.2c0,7,5,12.8,11.5,14.1c-1.2,0.3-2.4,0.5-3.8,0.5c-0.9,0-1.8-0.1-2.7-0.2 c1.9,5.7,7.1,9.9,13.4,10C16.3,54.7,10.1,57,3.4,57C2.3,57,1.1,57,0,56.8c6.4,4.1,13.9,6.4,22,6.4c26.4,0,40.8-21.9,40.8-40.8 c0-0.6,0-1.2-0.1-1.9C65.7,18.5,68,16,70,13.1z"></path></g></g><g id="instagram"><g><path d="M35,6.3c9.3,0,10.5,0,14.1,0.2c3.4,0.2,5.3,0.7,6.5,1.2c1.6,0.6,2.8,1.4,4,2.6c1.2,1.2,2,2.4,2.6,4c0.5,1.2,1,3.1,1.2,6.5 c0.2,3.7,0.2,4.8,0.2,14.1s0,10.5-0.2,14.1c-0.2,3.4-0.7,5.3-1.2,6.5c-0.6,1.6-1.4,2.8-2.6,4c-1.2,1.2-2.4,2-4,2.6 c-1.2,0.5-3.1,1-6.5,1.2c-3.7,0.2-4.8,0.2-14.1,0.2s-10.5,0-14.1-0.2c-3.4-0.2-5.3-0.7-6.5-1.2c-1.6-0.6-2.8-1.4-4-2.6 c-1.2-1.2-2-2.4-2.6-4c-0.5-1.2-1-3.1-1.2-6.5C6.3,45.5,6.3,44.3,6.3,35s0-10.5,0.2-14.1c0.2-3.4,0.7-5.3,1.2-6.5 c0.6-1.6,1.4-2.8,2.6-4c1.2-1.2,2.4-2,4-2.6c1.2-0.5,3.1-1,6.5-1.2C24.5,6.3,25.7,6.3,35,6.3 M35,0c-9.5,0-10.7,0-14.4,0.2 c-3.7,0.2-6.3,0.8-8.5,1.6c-2.3,0.9-4.3,2.1-6.2,4s-3.1,3.9-4,6.2c-0.9,2.2-1.5,4.8-1.6,8.5C0,24.3,0,25.5,0,35s0,10.7,0.2,14.4 c0.2,3.7,0.8,6.3,1.6,8.5c0.9,2.3,2.1,4.3,4,6.2c1.9,1.9,3.9,3.1,6.2,4c2.2,0.9,4.8,1.5,8.5,1.6C24.3,70,25.5,70,35,70 s10.7,0,14.4-0.2c3.7-0.2,6.3-0.8,8.5-1.6c2.3-0.9,4.3-2.1,6.2-4c1.9-1.9,3.1-3.9,4-6.2c0.9-2.2,1.5-4.8,1.6-8.5 C70,45.7,70,44.5,70,35s0-10.7-0.2-14.4c-0.2-3.7-0.8-6.3-1.6-8.5c-0.9-2.3-2.1-4.3-4-6.2c-1.9-1.9-3.9-3.1-6.2-4 c-2.2-0.9-4.8-1.5-8.5-1.6C45.7,0,44.5,0,35,0"></path></g><path d="M35,17c-9.9,0-18,8-18,18s8,18,18,18s18-8,18-18S44.9,17,35,17 M35,46.7c-6.4,0-11.7-5.2-11.7-11.7S28.6,23.3,35,23.3 S46.7,28.6,46.7,35S41.4,46.7,35,46.7"></path><path d="M57.9,16.3c0,2.3-1.9,4.2-4.2,4.2s-4.2-1.9-4.2-4.2s1.9-4.2,4.2-4.2C56,12.1,57.9,14,57.9,16.3"></path></g><g id="linkedin"><rect x="0.9" y="21.8" fill-rule="evenodd" clip-rule="evenodd" width="15" height="45.1"></rect><path fill-rule="evenodd" clip-rule="evenodd" d="M52.7,20.7c-7.7,0-11.3,4.1-13.3,7.1l-0.2,0.3l0-6.4h-15c0.1,1.2,0.1,5.2,0.1,10.4l0,7 c0,11.8-0.1,25.4-0.1,27.5l0,0.3l0,0h15V41.7c0-1.3,0.1-2.7,0.5-3.7c1.1-2.7,3.6-5.5,7.7-5.5c5.4,0,7.6,4.1,7.6,10.2v24.2h15V41 C70,27.2,62.6,20.7,52.7,20.7z"></path><path fill-rule="evenodd" clip-rule="evenodd" d="M8.5,0C3.4,0,0,3.4,0,7.8c0,4.3,3.3,7.8,8.3,7.8h0.1c5.2,0,8.5-3.5,8.5-7.8C16.8,3.4,13.6,0,8.5,0z"></path></g></defs><use x="0" y="0" xlink:href="#youtube"></use></svg>